<svg viewBox="0 0 330 200" xmlns="http://www.w3.org/2000/svg"><g><g><g><g><g><line x1="51.52000045776367" y1="177.95999908447266" x2="46.52000045776367" y2="177.95999908447266" style="visibility: inherit;" fill="rgb(0, 0, 0)" stroke="rgb(204, 204, 204)" stroke-width="1px"></line><line x1="51.52000045776367" y1="152.53714207240512" x2="46.52000045776367" y2="152.53714207240512" style="visibility: inherit;" fill="rgb(0, 0, 0)" stroke="rgb(204, 204, 204)" stroke-width="1px"></line><line x1="51.52000045776367" y1="127.11428506033758" x2="46.52000045776367" y2="127.11428506033758" style="visibility: inherit;" fill="rgb(0, 0, 0)" stroke="rgb(204, 204, 204)" stroke-width="1px"></line><line x1="51.52000045776367" y1="101.6914280482701" x2="46.52000045776367" y2="101.6914280482701" style="visibility: inherit;" fill="rgb(0, 0, 0)" stroke="rgb(204, 204, 204)" stroke-width="1px"></line><line x1="51.52000045776367" y1="76.26857103620256" x2="46.52000045776367" y2="76.26857103620256" style="visibility: inherit;" fill="rgb(0, 0, 0)" stroke="rgb(204, 204, 204)" stroke-width="1px"></line><line x1="51.52000045776367" y1="50.84571402413508" x2="46.52000045776367" y2="50.84571402413508" style="visibility: inherit;" fill="rgb(0, 0, 0)" stroke="rgb(204, 204, 204)" stroke-width="1px"></line><line x1="51.52000045776367" y1="25.42285701206754" x2="46.52000045776367" y2="25.42285701206754" style="visibility: inherit;" fill="rgb(0, 0, 0)" stroke="rgb(204, 204, 204)" stroke-width="1px"></line><line x1="51.52000045776367" y1="0" x2="46.52000045776367" y2="0" style="visibility: inherit;" fill="rgb(0, 0, 0)" stroke="rgb(204, 204, 204)" stroke-width="1px"></line></g><g transform="translate(41.52000045776367, 0)"><text style="text-anchor: end; visibility: hidden; font-family: &quot;Helvetica Neue&quot;, sans-serif; font-size: 12px; font-weight: 200;" x="0" y="177.95999908447266" dx="0em" dy="0.3em" fill="rgb(50, 49, 63)" stroke="none" stroke-width="1px">0.7</text><text style="text-anchor: end; visibility: inherit; font-family: &quot;Helvetica Neue&quot;, sans-serif; font-size: 12px; font-weight: 200;" x="0" y="152.53714207240512" dx="0em" dy="0.3em" fill="rgb(50, 49, 63)" stroke="none" stroke-width="1px">0.75</text><text style="text-anchor: end; visibility: inherit; font-family: &quot;Helvetica Neue&quot;, sans-serif; font-size: 12px; font-weight: 200;" x="0" y="127.11428506033758" dx="0em" dy="0.3em" fill="rgb(50, 49, 63)" stroke="none" stroke-width="1px">0.8</text><text style="text-anchor: end; visibility: inherit; font-family: &quot;Helvetica Neue&quot;, sans-serif; font-size: 12px; font-weight: 200;" x="0" y="101.6914280482701" dx="0em" dy="0.3em" fill="rgb(50, 49, 63)" stroke="none" stroke-width="1px">0.85</text><text style="text-anchor: end; visibility: inherit; font-family: &quot;Helvetica Neue&quot;, sans-serif; font-size: 12px; font-weight: 200;" x="0" y="76.26857103620256" dx="0em" dy="0.3em" fill="rgb(50, 49, 63)" stroke="none" stroke-width="1px">0.9</text><text style="text-anchor: end; visibility: inherit; font-family: &quot;Helvetica Neue&quot;, sans-serif; font-size: 12px; font-weight: 200;" x="0" y="50.84571402413508" dx="0em" dy="0.3em" fill="rgb(50, 49, 63)" stroke="none" stroke-width="1px">0.95</text><text style="text-anchor: end; visibility: inherit; font-family: &quot;Helvetica Neue&quot;, sans-serif; font-size: 12px; font-weight: 200;" x="0" y="25.42285701206754" dx="0em" dy="0.3em" fill="rgb(50, 49, 63)" stroke="none" stroke-width="1px">1</text><text style="text-anchor: end; visibility: hidden; font-family: &quot;Helvetica Neue&quot;, sans-serif; font-size: 12px; font-weight: 200;" x="0" y="0" dx="0em" dy="0.3em" fill="rgb(50, 49, 63)" stroke="none" stroke-width="1px">1.05</text></g><line x1="51.52000045776367" y1="0" x2="51.52000045776367" y2="177.95999908447266" fill="rgb(0, 0, 0)" stroke="rgb(204, 204, 204)" stroke-width="1px"></line></g></g><g transform="translate(51, 0)" clip-path="url(#clip_0)"><clipPath id="clip_0"><rect width="278" height="177"></rect></clipPath><g><g><g><line x1="0" y1="0" x2="0" y2="177.95999908447266" fill="rgb(0, 0, 0)" stroke="rgb(60, 60, 60)" stroke-width="1px" opacity="0.25"></line><line x1="19.891428538731166" y1="0" x2="19.891428538731166" y2="177.95999908447266" fill="rgb(0, 0, 0)" stroke="rgb(60, 60, 60)" stroke-width="1px" opacity="0.25"></line><line x1="39.78285707746233" y1="0" x2="39.78285707746233" y2="177.95999908447266" fill="rgb(0, 0, 0)" stroke="rgb(60, 60, 60)" stroke-width="1px" opacity="0.25"></line><line x1="59.674285616193494" y1="0" x2="59.674285616193494" y2="177.95999908447266" fill="rgb(0, 0, 0)" stroke="rgb(60, 60, 60)" stroke-width="1px" opacity="0.25"></line><line x1="79.56571415492466" y1="0" x2="79.56571415492466" y2="177.95999908447266" fill="rgb(0, 0, 0)" stroke="rgb(60, 60, 60)" stroke-width="1px" opacity="0.25"></line><line x1="99.45714269365584" y1="0" x2="99.45714269365584" y2="177.95999908447266" fill="rgb(0, 0, 0)" stroke="rgb(60, 60, 60)" stroke-width="1px" opacity="0.25"></line><line x1="119.34857123238699" y1="0" x2="119.34857123238699" y2="177.95999908447266" fill="rgb(0, 0, 0)" stroke="rgb(60, 60, 60)" stroke-width="1px" opacity="0.25"></line><line x1="139.23999977111816" y1="0" x2="139.23999977111816" y2="177.95999908447266" fill="rgb(0, 0, 0)" stroke="rgb(60, 60, 60)" stroke-width="1px" opacity="0.25"></line><line x1="159.13142830984933" y1="0" x2="159.13142830984933" y2="177.95999908447266" fill="rgb(0, 0, 0)" stroke="rgb(60, 60, 60)" stroke-width="1px" opacity="0.25"></line><line x1="179.02285684858052" y1="0" x2="179.02285684858052" y2="177.95999908447266" fill="rgb(0, 0, 0)" stroke="rgb(60, 60, 60)" stroke-width="1px" opacity="0.25"></line><line x1="198.91428538731168" y1="0" x2="198.91428538731168" y2="177.95999908447266" fill="rgb(0, 0, 0)" stroke="rgb(60, 60, 60)" stroke-width="1px" opacity="0.25"></line><line x1="218.8057139260428" y1="0" x2="218.8057139260428" y2="177.95999908447266" fill="rgb(0, 0, 0)" stroke="rgb(60, 60, 60)" stroke-width="1px" opacity="0.25"></line><line x1="238.69714246477398" y1="0" x2="238.69714246477398" y2="177.95999908447266" fill="rgb(0, 0, 0)" stroke="rgb(60, 60, 60)" stroke-width="1px" opacity="0.25"></line><line x1="258.5885710035052" y1="0" x2="258.5885710035052" y2="177.95999908447266" fill="rgb(0, 0, 0)" stroke="rgb(60, 60, 60)" stroke-width="1px" opacity="0.25"></line><line x1="278.4799995422363" y1="0" x2="278.4799995422363" y2="177.95999908447266" fill="rgb(0, 0, 0)" stroke="rgb(60, 60, 60)" stroke-width="1px" opacity="0.25"></line></g><g><line x1="0" y1="177.95999908447266" x2="278.4799995422363" y2="177.95999908447266" fill="rgb(0, 0, 0)" stroke="rgb(60, 60, 60)" stroke-width="1px" opacity="0.25"></line><line x1="0" y1="152.53714207240512" x2="278.4799995422363" y2="152.53714207240512" fill="rgb(0, 0, 0)" stroke="rgb(60, 60, 60)" stroke-width="1px" opacity="0.25"></line><line x1="0" y1="127.11428506033758" x2="278.4799995422363" y2="127.11428506033758" fill="rgb(0, 0, 0)" stroke="rgb(60, 60, 60)" stroke-width="1px" opacity="0.25"></line><line x1="0" y1="101.6914280482701" x2="278.4799995422363" y2="101.6914280482701" fill="rgb(0, 0, 0)" stroke="rgb(60, 60, 60)" stroke-width="1px" opacity="0.25"></line><line x1="0" y1="76.26857103620256" x2="278.4799995422363" y2="76.26857103620256" fill="rgb(0, 0, 0)" stroke="rgb(60, 60, 60)" stroke-width="1px" opacity="0.25"></line><line x1="0" y1="50.84571402413508" x2="278.4799995422363" y2="50.84571402413508" fill="rgb(0, 0, 0)" stroke="rgb(60, 60, 60)" stroke-width="1px" opacity="0.25"></line><line x1="0" y1="25.42285701206754" x2="278.4799995422363" y2="25.42285701206754" fill="rgb(0, 0, 0)" stroke="rgb(60, 60, 60)" stroke-width="1px" opacity="0.25"></line><line x1="0" y1="0" x2="278.4799995422363" y2="0" fill="rgb(0, 0, 0)" stroke="rgb(60, 60, 60)" stroke-width="1px" opacity="0.25"></line></g></g></g><g><g><line x1="0" y1="533.8799972534179" x2="278.4799995422363" y2="533.8799972534179" fill="rgb(0, 0, 0)" stroke="rgb(153, 153, 153)" stroke-width="1.5px"></line></g></g><g><g><line x1="19.891428538731166" y1="0" x2="19.891428538731166" y2="177.95999908447266" fill="rgb(0, 0, 0)" stroke="rgb(153, 153, 153)" stroke-width="1.5px"></line></g></g><g><g><g><g><g><path style="fill: none;" stroke="rgb(238, 51, 119)" stroke-width="2px" d="M19.891428538731166,48.297466446498476L21.88057139260428,41.889339826569824L23.8697142464774,38.621385008432014L25.858857100350516,36.70278000046926L27.847999954223635,35.58834844600008L29.837142808096747,34.78779125549025L31.826285661969866,34.194771977034975L33.81542851584298,33.74828513953696L35.80457136971609,33.28636213675642L37.79371422358921,33.05290055771516L39.78285707746233,32.76842694365402L41.77199993133545,32.52289465620325L43.76114278520856,32.388328292394505L45.75028563908168,32.15581880240299L47.7394284929548,31.90264552507074L49.72857134682792,31.787743750440228L51.71771420070103,31.594461583142106L53.70685705457415,31.53429184121788L55.69599990844727,31.393069618393042L57.68514276232039,31.31440496762275L59.674285616193494,31.235817627119957L61.66342847006661,31.095986046844303L63.65257132393973,31.07599356479841L65.64171417781284,31.047508466021895L67.63085703168596,30.871029072659383L69.61999988555908,30.697714266424015L71.60914273943219,30.711633229632753L73.59828559330532,30.62736573038299L75.58742844717843,30.64271121949676L77.57657130105156,30.53449623468535L79.56571415492466,30.525261600381867L81.55485700879778,30.59230808042105L83.5439998626709,30.37598658844675L85.53314271654402,30.396860303949325L87.52228557041713,30.427137215687196L89.51142842429026,30.340776320926693L91.50057127816336,30.23041318747738L93.48971413203647,30.174986609160214L95.4788569859096,30.16625042410712L97.4679998397827,30.042834290663478L99.45714269365584,30.010094776612362L101.44628554752894,30.048769235242617L103.43542840140206,29.999719360047067L105.42457125527518,29.86321203876284L107.4137141091483,29.845935207703803L109.4028569630214,29.750399666518433L111.39199981689454,29.94366373236835L113.38114267076764,29.723818055786523L115.37028552464078,29.803374505833773L117.35942837851388,29.73650708824934L119.34857123238699,29.878801317132968L121.33771408626012,29.741463465584616L123.32685694013323,29.75285281858217L125.31599979400634,29.652467149086192L127.30514264787946,29.546233875844592L129.2942855017526,29.620627249534238L131.2834283556257,29.67069380809869L133.2725712094988,29.58602691037433L135.26171406337193,29.643681550064258L137.25085691724504,29.43427995462727L139.23999977111816,29.45218059164688L141.22914262499128,29.936764785757788L143.21828547886437,29.591067143837932L145.20742833273752,29.699078412153995L147.19657118661064,29.63395880483114L149.18571404048373,29.439509493320173L151.17485689435685,29.53616772771025L153.16399974823,29.409514521147116L155.15314260210312,29.428818883323345L157.1422854559762,29.647773337852215L159.13142830984933,29.399124649086957L161.12057116372247,29.346211246188062L163.10971401759556,29.488172994159697L165.09885687146868,29.37665949908032L167.0879997253418,29.4189199477332L169.0771425792149,29.343770114183485L171.06628543308804,29.65293485250612L173.05542828696116,29.30957810463846L175.04457114083425,29.52665523085318L177.03371399470737,29.459718199223317L179.02285684858052,29.352487985110713L181.0119997024536,29.358080704282514L183.00114255632673,29.34420830248561L184.99028541019985,29.306718625918307L186.97942826407294,29.254188335022718L188.96857111794608,29.841387342109954L190.9577139718192,29.396705138975165L192.9468568256923,29.271680199633153L194.9359996795654,29.368842268987123L196.92514253343856,29.278659411334672L198.91428538731168,29.20883615215928L200.90342824118477,29.51418916910407L202.8925710950579,29.216297128498383L204.88171394893104,29.246557997566214L206.87085680280413,29.06186315175478L208.85999965667725,29.031572648321543L210.84914251055037,28.984235780729563L212.83828536442346,29.251169076458098L214.8274282182966,29.093286186266283L216.81657107216972,29.06586293516449L218.8057139260428,29.05197169232312L220.79485677991593,29.00656336051543L222.78399963378908,29.11307848986405L224.7731424876622,29.075852592890158L226.7622853415353,28.879079294014076L228.7514281954084,29.07621221144248L230.74057104928156,29.042602357991626L232.72971390315465,29.126966289440446L234.71885675702777,29.003264925818485L236.70799961090088,29.077382061897936L238.69714246477398,29.160142128595965L240.68628531864712,29.029043683419417L242.67542817252024,29.03810439028672L244.66457102639333,29.33320063543445L246.65371388026645,29.150205314704493L248.6428567341396,29.00904862223436L250.6319995880127,29.076741148496012L252.6211424418858,29.059923557520705L254.61028529575893,29.170624510711747L256.59942814963205,29.000006024219147" fill="none"></path></g><g><path style="fill: none;" stroke="rgb(51, 187, 238)" stroke-width="2px" d="M19.891428538731166,142.54618033371952L21.88057139260428,87.61978037926113L23.8697142464774,63.84257747437637L25.858857100350516,53.60832610902938L27.847999954223635,48.468000459611545L29.837142808096747,45.600448400963415L31.826285661969866,43.92682547702216L33.81542851584298,42.886294503854714L35.80457136971609,41.83568536260205L37.79371422358921,41.0503844588431L39.78285707746233,40.602928969897306L41.77199993133545,39.91539776565327L43.76114278520856,39.648104653631435L45.75028563908168,39.16032283786495L47.7394284929548,38.752477353287105L49.72857134682792,38.47402753150081L51.71771420070103,38.164346175031284L53.70685705457415,38.00888025199026L55.69599990844727,37.831856249943L57.68514276232039,37.601417168730535L59.674285616193494,37.570810949242286L61.66342847006661,37.24795170730795L63.65257132393973,37.29936197080832L65.64171417781284,37.14396601616073L67.63085703168596,36.83551805516436L69.61999988555908,36.52659591926047L71.60914273943219,36.47704832661489L73.59828559330532,36.09288229290854L75.58742844717843,36.24094667135296L77.57657130105156,36.17579316955488L79.56571415492466,36.30773975682402L81.55485700879778,36.37929396198919L83.5439998626709,35.937796516089236L85.53314271654402,35.92680020928378L87.52228557041713,36.05206109670161L89.51142842429026,35.92289351036078L91.50057127816336,35.46861511560172L93.48971413203647,35.53062338902339L95.4788569859096,35.49795046066157L97.4679998397827,35.28179528598099L99.45714269365584,35.35583996726021L101.44628554752894,35.47634008092376L103.43542840140206,35.41019386806681L105.42457125527518,34.86015759360728L107.4137141091483,35.08899362639562L109.4028569630214,34.92549432622806L111.39199981689454,35.338241446948956L113.38114267076764,34.68334548009284L115.37028552464078,34.96008699376921L117.35942837851388,34.79103893639723L119.34857123238699,35.09201825249906L121.33771408626012,34.90236570248683L123.32685694013323,34.768143139441975L125.31599979400634,34.679549773563366L127.30514264787946,34.28014840336735L129.2942855017526,34.34387571704178L131.2834283556257,34.62062261770444L133.2725712094988,34.30182312639468L135.26171406337193,34.680369449047646L137.25085691724504,34.09065195164206L139.23999977111816,34.09715714024327L141.22914262499128,35.55991692352313L143.21828547886437,34.51672214674835L145.20742833273752,34.6511984181019L147.19657118661064,34.52121019896674L149.18571404048373,34.072562026730736L151.17485689435685,34.336036172712966L153.16399974823,34.07579515695397L155.15314260210312,34.07659830767682L157.1422854559762,34.70828840068427L159.13142830984933,33.965864314415796L161.12057116372247,33.83261978651538L163.10971401759556,34.216723984481064L165.09885687146868,34.04891158420932L167.0879997253418,33.97769281082944L169.0771425792149,33.83994451378007L171.06628543308804,35.01821955624038L173.05542828696116,33.71374763262264L175.04457114083425,34.60448224561216L177.03371399470737,34.36995884337108L179.02285684858052,34.073943345122785L181.0119997024536,33.92737165283174L183.00114255632673,33.873705125472384L184.99028541019985,33.72817559391768L186.97942826407294,33.80711524360899L188.96857111794608,36.400337997871105L190.9577139718192,34.34759243922983L192.9468568256923,33.86465630604903L194.9359996795654,33.97275820042708L196.92514253343856,33.81145809117888L198.91428538731168,33.668748457830645L200.90342824118477,34.35367726330102L202.8925710950579,33.531335318303206L204.88171394893104,33.61982159874111L206.87085680280413,33.17536348558559L208.85999965667725,33.073550776437L210.84914251055037,33.11004473647992L212.83828536442346,34.076747905385105L214.8274282182966,33.435697535773414L216.81657107216972,33.33197411449754L218.8057139260428,33.04882900561009L220.79485677991593,33.05727163617502L222.78399963378908,33.38455576263249L224.7731424876622,33.35337507067803L226.7622853415353,32.73641679650777L228.7514281954084,33.25562900374101L230.74057104928156,33.197508227542926L232.72971390315465,33.36334393111096L234.71885675702777,32.808121171744745L236.70799961090088,33.13468504913877L238.69714246477398,33.405615909045565L240.68628531864712,32.91872882815895L242.67542817252024,33.13422117275897L244.66457102639333,34.02629743690753L246.65371388026645,33.32231811492039L248.6428567341396,32.9793187226507L250.6319995880127,33.08606044632597L252.6211424418858,32.84129757685966L254.61028529575893,33.34061738365122L256.59942814963205,32.91490677499951" fill="none"></path></g></g></g></g><g opacity="0.2"><g><g><g><path style="fill: none;" stroke="rgb(238, 51, 119)" stroke-width="2px" d="M19.891428538731166,48.297466446498476L21.88057139260428,39.96690184059119L23.8697142464774,37.34688262935822L25.858857100350516,35.902721712148775L27.847999954223635,35.114603592195124L29.837142808096747,34.445529039831456L31.826285661969866,33.94080613386308L33.81542851584298,33.55697548632557L35.80457136971609,33.08840812417969L37.79371422358921,32.952847564650654L39.78285707746233,32.64651040039411L41.77199993133545,32.41766671941852L43.76114278520856,32.33065702426808L45.75028563908168,32.05617189400775L47.7394284929548,31.794142697117934L49.72857134682792,31.7385001334481L51.71771420070103,31.511626368942302L53.70685705457415,31.508504808997856L55.69599990844727,31.33254580863442L57.68514276232039,31.280691545868024L59.674285616193494,31.202137338334097L61.66342847006661,31.03605822672685L63.65257132393973,31.06742535820743L65.64171417781284,31.03530056654614L67.63085703168596,30.795395046932498L69.61999988555908,30.623436492323123L71.60914273943219,30.71759849957928L73.59828559330532,30.59125108784741L75.58742844717843,30.64928785768828L77.57657130105156,30.488118384051916L79.56571415492466,30.521303899966114L81.55485700879778,30.621042286152147L83.5439998626709,30.28327737760057L85.53314271654402,30.405806182021763L87.52228557041713,30.440113035003407L89.51142842429026,30.303764508886445L91.50057127816336,30.18311470171335L93.48971413203647,30.15123236130995L95.4788569859096,30.1625063447986L97.4679998397827,29.989941662044686L99.45714269365584,29.996063556304648L101.44628554752894,30.065344003226926L103.43542840140206,29.978697984963247L105.42457125527518,29.804708901069603L107.4137141091483,29.83853085153561L109.4028569630214,29.709455863153266L111.39199981689454,30.026491189161163L113.38114267076764,29.62959848010854L115.37028552464078,29.837470127282643L117.35942837851388,29.707849623570212L119.34857123238699,29.939784558082977L121.33771408626012,29.682604386349624L123.32685694013323,29.75773396986682L125.31599979400634,29.60944471930219L127.30514264787946,29.50070533016958L129.2942855017526,29.652510123972604L131.2834283556257,29.692150904626317L133.2725712094988,29.549741097063844L135.26171406337193,29.66839068135988L137.25085691724504,29.344536413725763L139.23999977111816,29.45985229322679L141.22914262499128,30.14444372609097L143.21828547886437,29.442911011586546L145.20742833273752,29.745368955717964L147.19657118661064,29.6060504016927L149.18571404048373,29.356174074101148L151.17485689435685,29.577592685306L153.16399974823,29.355234575477112L155.15314260210312,29.437092181398867L157.1422854559762,29.74161096122174L159.13142830984933,29.292560925330434L161.12057116372247,29.323534073517038L163.10971401759556,29.549013743290345L165.09885687146868,29.328868001189107L167.0879997253418,29.437031568584388L169.0771425792149,29.311563042662158L171.06628543308804,29.785434026072863L173.05542828696116,29.162425212695155L175.04457114083425,29.619688284945113L177.03371399470737,29.431030899953328L179.02285684858052,29.306532179062344L181.0119997024536,29.36047758392749L183.00114255632673,29.33826298742966L184.99028541019985,29.290651621675096L186.97942826407294,29.231675353210193L188.96857111794608,30.09304405943297L190.9577139718192,29.20612705191735L192.9468568256923,29.21809808277223L194.9359996795654,29.410483155853L196.92514253343856,29.240009615197806L198.91428538731168,29.17891189822697L200.90342824118477,29.64505474779463L202.8925710950579,29.08862911109594L204.88171394893104,29.25952694145238L206.87085680280413,28.982708217835494L208.85999965667725,29.01859100399298L210.84914251055037,28.963948551761604L212.83828536442346,29.365569060341727L214.8274282182966,29.025622090469767L216.81657107216972,29.054110113263704L218.8057139260428,29.046018302533923L220.79485677991593,28.9871026468835L222.78399963378908,29.15872783101338L224.7731424876622,29.0598986370442L226.7622853415353,28.79474788020994L228.7514281954084,29.16069774748317L230.74057104928156,29.028198135084097L232.72971390315465,29.163122260061357L234.71885675702777,28.950250055694738L236.70799961090088,29.109146548789028L238.69714246477398,29.195610728609353L240.68628531864712,28.972858635486517L242.67542817252024,29.041987550372653L244.66457102639333,29.459670454783407L246.65371388026645,29.071778748677417L248.6428567341396,28.948552896889993L250.6319995880127,29.105752231179537L252.6211424418858,29.052716018531243L254.61028529575893,29.21806777636499L256.59942814963205,28.926883815722277" fill="none"></path></g><g><path style="fill: none;" stroke="rgb(51, 187, 238)" stroke-width="2px" d="M19.891428538731166,142.54618033371946L21.88057139260428,71.14186039292352L23.8697142464774,54.56946834147129L25.858857100350516,49.340643289679576L27.847999954223635,46.28284802604401L29.837142808096747,44.37448386932945L31.826285661969866,43.21008139723796L33.81542851584298,42.44045018569315L35.80457136971609,41.385453843693284L37.79371422358921,40.71383355312253L39.78285707746233,40.411163464140515L41.77199993133545,39.62074205723755L43.76114278520856,39.533550523643754L45.75028563908168,38.951273521579935L47.7394284929548,38.57768643968535L49.72857134682792,38.35469189530471L51.71771420070103,38.031625594258514L53.70685705457415,37.942251999344364L55.69599990844727,37.755988820523555L57.68514276232039,37.50265756250806L59.674285616193494,37.55769399803336L61.66342847006661,37.109583460766146L63.65257132393973,37.3213949408798L65.64171417781284,37.077367749883194L67.63085703168596,36.70332607188021L69.61999988555908,36.394200718158714L71.60914273943219,36.4558136440524L73.59828559330532,35.92823970703441L75.58742844717843,36.30440283354335L77.57657130105156,36.147870240212825L79.56571415492466,36.36428829422508L81.55485700879778,36.40996004991706L83.5439998626709,35.74858332498923L85.53314271654402,35.922087506367205L87.52228557041713,36.105744334166445L89.51142842429026,35.86753597335752L91.50057127816336,35.2739243749906L93.48971413203647,35.55719836334694L95.4788569859096,35.483947777077844L97.4679998397827,35.18915735397502L99.45714269365584,35.38757340209409L101.44628554752894,35.52798298677956L103.43542840140206,35.381845491128075L105.42457125527518,34.62442776169598L107.4137141091483,35.18706621187633L109.4028569630214,34.85542319758471L111.39199981689454,35.51513307011504L113.38114267076764,34.402675780011634L115.37028552464078,35.078690499630426L117.35942837851388,34.718589768952114L119.34857123238699,35.221009387971236L121.33771408626012,34.82108603819586L123.32685694013323,34.710619183851264L125.31599979400634,34.64158118818679L127.30514264787946,34.108976387569015L129.2942855017526,34.37118742290218L131.2834283556257,34.73922843227413L133.2725712094988,34.16519477297621L135.26171406337193,34.84260358732746L137.25085691724504,33.83791588132539L139.23999977111816,34.09994507821517L141.22914262499128,36.18681397350025L143.21828547886437,34.06963867098759L145.20742833273752,34.70883110582483L147.19657118661064,34.465500962194454L149.18571404048373,33.88028423862957L151.17485689435685,34.44895366384819L153.16399974823,33.96426329305726L155.15314260210312,34.076942515129446L157.1422854559762,34.97901272625887L159.13142830984933,33.64768256315776L161.12057116372247,33.77551498884378L163.10971401759556,34.38134006932344L165.09885687146868,33.97699198409285L167.0879997253418,33.94717047938087L169.0771425792149,33.78090952933027L171.06628543308804,35.52319457443758L173.05542828696116,33.154688236786455L175.04457114083425,34.98622565117904L177.03371399470737,34.26944881383912L179.02285684858052,33.94707956015921L181.0119997024536,33.864555213278464L183.00114255632673,33.85070518517543L184.99028541019985,33.66580579467987L186.97942826407294,33.84094652204814L188.96857111794608,37.51171917826912L190.9577139718192,33.467844342669224L192.9468568256923,33.65768367754288L194.9359996795654,34.01908758373196L196.92514253343856,33.742329472929555L198.91428538731168,33.60758718639565L200.90342824118477,34.647218179931144L202.8925710950579,33.17890305616132L204.88171394893104,33.65774429035733L206.87085680280413,32.98488143709022L208.85999965667725,33.02991675823043L210.84914251055037,33.12568500506964L212.83828536442346,34.49104926348733L214.8274282182966,33.16096166308256L216.81657107216972,33.287521219665024L218.8057139260428,32.92748110180116L220.79485677991593,33.06088990641703L222.78399963378908,33.52482038825707L224.7731424876622,33.3400119169832L226.7622853415353,32.47200610757761L228.7514281954084,33.47814852112657L230.74057104928156,33.17259932345797L232.72971390315465,33.434416375497165L234.71885675702777,32.570168560587774L236.70799961090088,33.27464099659329L238.69714246477398,33.52172913471989L240.68628531864712,32.7100629363504L242.67542817252024,33.2265750347303L244.66457102639333,34.40861583582824L246.65371388026645,33.02061269121157L248.6428567341396,32.83231898310652L250.6319995880127,33.13180689932963L252.6211424418858,32.73639920423116L254.61028529575893,33.55461158656183L256.59942814963205,32.732459371291554" fill="none"></path></g></g></g></g></g></g><g transform="translate(51, 177)" clip-path="url(#clip_1)"><clipPath id="clip_1"><rect width="278" height="22"></rect></clipPath><g><g><line x1="0" y1="0" x2="0" y2="5" style="visibility: inherit;" fill="rgb(0, 0, 0)" stroke="rgb(204, 204, 204)" stroke-width="1px"></line><line x1="19.891428538731166" y1="0" x2="19.891428538731166" y2="5" style="visibility: inherit;" fill="rgb(0, 0, 0)" stroke="rgb(204, 204, 204)" stroke-width="1px"></line><line x1="39.78285707746233" y1="0" x2="39.78285707746233" y2="5" style="visibility: inherit;" fill="rgb(0, 0, 0)" stroke="rgb(204, 204, 204)" stroke-width="1px"></line><line x1="59.674285616193494" y1="0" x2="59.674285616193494" y2="5" style="visibility: inherit;" fill="rgb(0, 0, 0)" stroke="rgb(204, 204, 204)" stroke-width="1px"></line><line x1="79.56571415492466" y1="0" x2="79.56571415492466" y2="5" style="visibility: inherit;" fill="rgb(0, 0, 0)" stroke="rgb(204, 204, 204)" stroke-width="1px"></line><line x1="99.45714269365584" y1="0" x2="99.45714269365584" y2="5" style="visibility: inherit;" fill="rgb(0, 0, 0)" stroke="rgb(204, 204, 204)" stroke-width="1px"></line><line x1="119.34857123238699" y1="0" x2="119.34857123238699" y2="5" style="visibility: inherit;" fill="rgb(0, 0, 0)" stroke="rgb(204, 204, 204)" stroke-width="1px"></line><line x1="139.23999977111816" y1="0" x2="139.23999977111816" y2="5" style="visibility: inherit;" fill="rgb(0, 0, 0)" stroke="rgb(204, 204, 204)" stroke-width="1px"></line><line x1="159.13142830984933" y1="0" x2="159.13142830984933" y2="5" style="visibility: inherit;" fill="rgb(0, 0, 0)" stroke="rgb(204, 204, 204)" stroke-width="1px"></line><line x1="179.02285684858052" y1="0" x2="179.02285684858052" y2="5" style="visibility: inherit;" fill="rgb(0, 0, 0)" stroke="rgb(204, 204, 204)" stroke-width="1px"></line><line x1="198.91428538731168" y1="0" x2="198.91428538731168" y2="5" style="visibility: inherit;" fill="rgb(0, 0, 0)" stroke="rgb(204, 204, 204)" stroke-width="1px"></line><line x1="218.8057139260428" y1="0" x2="218.8057139260428" y2="5" style="visibility: inherit;" fill="rgb(0, 0, 0)" stroke="rgb(204, 204, 204)" stroke-width="1px"></line><line x1="238.69714246477398" y1="0" x2="238.69714246477398" y2="5" style="visibility: inherit;" fill="rgb(0, 0, 0)" stroke="rgb(204, 204, 204)" stroke-width="1px"></line><line x1="258.5885710035052" y1="0" x2="258.5885710035052" y2="5" style="visibility: inherit;" fill="rgb(0, 0, 0)" stroke="rgb(204, 204, 204)" stroke-width="1px"></line><line x1="278.4799995422363" y1="0" x2="278.4799995422363" y2="5" style="visibility: inherit;" fill="rgb(0, 0, 0)" stroke="rgb(204, 204, 204)" stroke-width="1px"></line></g><g transform="translate(0, 8)"><text style="text-anchor: middle; visibility: hidden; font-family: &quot;Helvetica Neue&quot;, sans-serif; font-size: 12px; font-weight: 200;" x="0" y="0" dx="0em" dy="0.95em" fill="rgb(50, 49, 63)" stroke="none" stroke-width="1px">-10</text><text style="text-anchor: middle; visibility: inherit; font-family: &quot;Helvetica Neue&quot;, sans-serif; font-size: 12px; font-weight: 200;" x="19.891428538731166" y="0" dx="0em" dy="0.95em" fill="rgb(50, 49, 63)" stroke="none" stroke-width="1px">0</text><text style="text-anchor: middle; visibility: hidden; font-family: &quot;Helvetica Neue&quot;, sans-serif; font-size: 12px; font-weight: 200;" x="39.78285707746233" y="0" dx="0em" dy="0.95em" fill="rgb(50, 49, 63)" stroke="none" stroke-width="1px">10</text><text style="text-anchor: middle; visibility: inherit; font-family: &quot;Helvetica Neue&quot;, sans-serif; font-size: 12px; font-weight: 200;" x="59.674285616193494" y="0" dx="0em" dy="0.95em" fill="rgb(50, 49, 63)" stroke="none" stroke-width="1px">20</text><text style="text-anchor: middle; visibility: hidden; font-family: &quot;Helvetica Neue&quot;, sans-serif; font-size: 12px; font-weight: 200;" x="79.56571415492466" y="0" dx="0em" dy="0.95em" fill="rgb(50, 49, 63)" stroke="none" stroke-width="1px">30</text><text style="text-anchor: middle; visibility: inherit; font-family: &quot;Helvetica Neue&quot;, sans-serif; font-size: 12px; font-weight: 200;" x="99.45714269365584" y="0" dx="0em" dy="0.95em" fill="rgb(50, 49, 63)" stroke="none" stroke-width="1px">40</text><text style="text-anchor: middle; visibility: hidden; font-family: &quot;Helvetica Neue&quot;, sans-serif; font-size: 12px; font-weight: 200;" x="119.34857123238699" y="0" dx="0em" dy="0.95em" fill="rgb(50, 49, 63)" stroke="none" stroke-width="1px">50</text><text style="text-anchor: middle; visibility: inherit; font-family: &quot;Helvetica Neue&quot;, sans-serif; font-size: 12px; font-weight: 200;" x="139.23999977111816" y="0" dx="0em" dy="0.95em" fill="rgb(50, 49, 63)" stroke="none" stroke-width="1px">60</text><text style="text-anchor: middle; visibility: hidden; font-family: &quot;Helvetica Neue&quot;, sans-serif; font-size: 12px; font-weight: 200;" x="159.13142830984933" y="0" dx="0em" dy="0.95em" fill="rgb(50, 49, 63)" stroke="none" stroke-width="1px">70</text><text style="text-anchor: middle; visibility: inherit; font-family: &quot;Helvetica Neue&quot;, sans-serif; font-size: 12px; font-weight: 200;" x="179.02285684858052" y="0" dx="0em" dy="0.95em" fill="rgb(50, 49, 63)" stroke="none" stroke-width="1px">80</text><text style="text-anchor: middle; visibility: hidden; font-family: &quot;Helvetica Neue&quot;, sans-serif; font-size: 12px; font-weight: 200;" x="198.91428538731168" y="0" dx="0em" dy="0.95em" fill="rgb(50, 49, 63)" stroke="none" stroke-width="1px">90</text><text style="text-anchor: middle; visibility: inherit; font-family: &quot;Helvetica Neue&quot;, sans-serif; font-size: 12px; font-weight: 200;" x="218.8057139260428" y="0" dx="0em" dy="0.95em" fill="rgb(50, 49, 63)" stroke="none" stroke-width="1px">100</text><text style="text-anchor: middle; visibility: hidden; font-family: &quot;Helvetica Neue&quot;, sans-serif; font-size: 12px; font-weight: 200;" x="238.69714246477398" y="0" dx="0em" dy="0.95em" fill="rgb(50, 49, 63)" stroke="none" stroke-width="1px">110</text><text style="text-anchor: middle; visibility: inherit; font-family: &quot;Helvetica Neue&quot;, sans-serif; font-size: 12px; font-weight: 200;" x="258.5885710035052" y="0" dx="0em" dy="0.95em" fill="rgb(50, 49, 63)" stroke="none" stroke-width="1px">120</text><text style="text-anchor: middle; visibility: hidden; font-family: &quot;Helvetica Neue&quot;, sans-serif; font-size: 12px; font-weight: 200;" x="278.4799995422363" y="0" dx="0em" dy="0.95em" fill="rgb(50, 49, 63)" stroke="none" stroke-width="1px">130</text></g><line x1="0" y1="0" x2="278.4799995422363" y2="0" fill="rgb(0, 0, 0)" stroke="rgb(204, 204, 204)" stroke-width="1px"></line></g></g></g></g></svg>