<svg viewBox="0 0 330 200" xmlns="http://www.w3.org/2000/svg"><g><g><g><g><g><line x1="51.52000045776367" y1="177.95999908447266" x2="46.52000045776367" y2="177.95999908447266" style="visibility: inherit;" fill="rgb(0, 0, 0)" stroke="rgb(204, 204, 204)" stroke-width="1px"></line><line x1="51.52000045776367" y1="160.16399917602538" x2="46.52000045776367" y2="160.16399917602538" style="visibility: inherit;" fill="rgb(0, 0, 0)" stroke="rgb(204, 204, 204)" stroke-width="1px"></line><line x1="51.52000045776367" y1="142.36799926757814" x2="46.52000045776367" y2="142.36799926757814" style="visibility: inherit;" fill="rgb(0, 0, 0)" stroke="rgb(204, 204, 204)" stroke-width="1px"></line><line x1="51.52000045776367" y1="124.57199935913087" x2="46.52000045776367" y2="124.57199935913087" style="visibility: inherit;" fill="rgb(0, 0, 0)" stroke="rgb(204, 204, 204)" stroke-width="1px"></line><line x1="51.52000045776367" y1="106.77599945068359" x2="46.52000045776367" y2="106.77599945068359" style="visibility: inherit;" fill="rgb(0, 0, 0)" stroke="rgb(204, 204, 204)" stroke-width="1px"></line><line x1="51.52000045776367" y1="88.97999954223634" x2="46.52000045776367" y2="88.97999954223634" style="visibility: inherit;" fill="rgb(0, 0, 0)" stroke="rgb(204, 204, 204)" stroke-width="1px"></line><line x1="51.52000045776367" y1="71.18399963378907" x2="46.52000045776367" y2="71.18399963378907" style="visibility: inherit;" fill="rgb(0, 0, 0)" stroke="rgb(204, 204, 204)" stroke-width="1px"></line><line x1="51.52000045776367" y1="53.38799972534183" x2="46.52000045776367" y2="53.38799972534183" style="visibility: inherit;" fill="rgb(0, 0, 0)" stroke="rgb(204, 204, 204)" stroke-width="1px"></line><line x1="51.52000045776367" y1="35.59199981689457" x2="46.52000045776367" y2="35.59199981689457" style="visibility: inherit;" fill="rgb(0, 0, 0)" stroke="rgb(204, 204, 204)" stroke-width="1px"></line><line x1="51.52000045776367" y1="17.79599990844727" x2="46.52000045776367" y2="17.79599990844727" style="visibility: inherit;" fill="rgb(0, 0, 0)" stroke="rgb(204, 204, 204)" stroke-width="1px"></line><line x1="51.52000045776367" y1="0" x2="46.52000045776367" y2="0" style="visibility: inherit;" fill="rgb(0, 0, 0)" stroke="rgb(204, 204, 204)" stroke-width="1px"></line></g><g transform="translate(41.52000045776367, 0)"><text style="text-anchor: end; visibility: hidden; font-family: &quot;Helvetica Neue&quot;, sans-serif; font-size: 12px; font-weight: 200;" x="0" y="177.95999908447266" dx="0em" dy="0.3em" fill="rgb(50, 49, 63)" stroke="none" stroke-width="1px">0.6</text><text style="text-anchor: end; visibility: inherit; font-family: &quot;Helvetica Neue&quot;, sans-serif; font-size: 12px; font-weight: 200;" x="0" y="160.16399917602538" dx="0em" dy="0.3em" fill="rgb(50, 49, 63)" stroke="none" stroke-width="1px">0.65</text><text style="text-anchor: end; visibility: hidden; font-family: &quot;Helvetica Neue&quot;, sans-serif; font-size: 12px; font-weight: 200;" x="0" y="142.36799926757814" dx="0em" dy="0.3em" fill="rgb(50, 49, 63)" stroke="none" stroke-width="1px">0.7</text><text style="text-anchor: end; visibility: inherit; font-family: &quot;Helvetica Neue&quot;, sans-serif; font-size: 12px; font-weight: 200;" x="0" y="124.57199935913087" dx="0em" dy="0.3em" fill="rgb(50, 49, 63)" stroke="none" stroke-width="1px">0.75</text><text style="text-anchor: end; visibility: hidden; font-family: &quot;Helvetica Neue&quot;, sans-serif; font-size: 12px; font-weight: 200;" x="0" y="106.77599945068359" dx="0em" dy="0.3em" fill="rgb(50, 49, 63)" stroke="none" stroke-width="1px">0.8</text><text style="text-anchor: end; visibility: inherit; font-family: &quot;Helvetica Neue&quot;, sans-serif; font-size: 12px; font-weight: 200;" x="0" y="88.97999954223634" dx="0em" dy="0.3em" fill="rgb(50, 49, 63)" stroke="none" stroke-width="1px">0.85</text><text style="text-anchor: end; visibility: hidden; font-family: &quot;Helvetica Neue&quot;, sans-serif; font-size: 12px; font-weight: 200;" x="0" y="71.18399963378907" dx="0em" dy="0.3em" fill="rgb(50, 49, 63)" stroke="none" stroke-width="1px">0.9</text><text style="text-anchor: end; visibility: inherit; font-family: &quot;Helvetica Neue&quot;, sans-serif; font-size: 12px; font-weight: 200;" x="0" y="53.38799972534183" dx="0em" dy="0.3em" fill="rgb(50, 49, 63)" stroke="none" stroke-width="1px">0.95</text><text style="text-anchor: end; visibility: hidden; font-family: &quot;Helvetica Neue&quot;, sans-serif; font-size: 12px; font-weight: 200;" x="0" y="35.59199981689457" dx="0em" dy="0.3em" fill="rgb(50, 49, 63)" stroke="none" stroke-width="1px">1</text><text style="text-anchor: end; visibility: inherit; font-family: &quot;Helvetica Neue&quot;, sans-serif; font-size: 12px; font-weight: 200;" x="0" y="17.79599990844727" dx="0em" dy="0.3em" fill="rgb(50, 49, 63)" stroke="none" stroke-width="1px">1.05</text><text style="text-anchor: end; visibility: hidden; font-family: &quot;Helvetica Neue&quot;, sans-serif; font-size: 12px; font-weight: 200;" x="0" y="0" dx="0em" dy="0.3em" fill="rgb(50, 49, 63)" stroke="none" stroke-width="1px">1.1</text></g><line x1="51.52000045776367" y1="0" x2="51.52000045776367" y2="177.95999908447266" fill="rgb(0, 0, 0)" stroke="rgb(204, 204, 204)" stroke-width="1px"></line></g></g><g transform="translate(51, 0)" clip-path="url(#clip_0)"><clipPath id="clip_0"><rect width="278" height="177"></rect></clipPath><g><g><g><line x1="0" y1="0" x2="0" y2="177.95999908447266" fill="rgb(0, 0, 0)" stroke="rgb(60, 60, 60)" stroke-width="1px" opacity="0.25"></line><line x1="19.891428538731166" y1="0" x2="19.891428538731166" y2="177.95999908447266" fill="rgb(0, 0, 0)" stroke="rgb(60, 60, 60)" stroke-width="1px" opacity="0.25"></line><line x1="39.78285707746233" y1="0" x2="39.78285707746233" y2="177.95999908447266" fill="rgb(0, 0, 0)" stroke="rgb(60, 60, 60)" stroke-width="1px" opacity="0.25"></line><line x1="59.674285616193494" y1="0" x2="59.674285616193494" y2="177.95999908447266" fill="rgb(0, 0, 0)" stroke="rgb(60, 60, 60)" stroke-width="1px" opacity="0.25"></line><line x1="79.56571415492466" y1="0" x2="79.56571415492466" y2="177.95999908447266" fill="rgb(0, 0, 0)" stroke="rgb(60, 60, 60)" stroke-width="1px" opacity="0.25"></line><line x1="99.45714269365584" y1="0" x2="99.45714269365584" y2="177.95999908447266" fill="rgb(0, 0, 0)" stroke="rgb(60, 60, 60)" stroke-width="1px" opacity="0.25"></line><line x1="119.34857123238699" y1="0" x2="119.34857123238699" y2="177.95999908447266" fill="rgb(0, 0, 0)" stroke="rgb(60, 60, 60)" stroke-width="1px" opacity="0.25"></line><line x1="139.23999977111816" y1="0" x2="139.23999977111816" y2="177.95999908447266" fill="rgb(0, 0, 0)" stroke="rgb(60, 60, 60)" stroke-width="1px" opacity="0.25"></line><line x1="159.13142830984933" y1="0" x2="159.13142830984933" y2="177.95999908447266" fill="rgb(0, 0, 0)" stroke="rgb(60, 60, 60)" stroke-width="1px" opacity="0.25"></line><line x1="179.02285684858052" y1="0" x2="179.02285684858052" y2="177.95999908447266" fill="rgb(0, 0, 0)" stroke="rgb(60, 60, 60)" stroke-width="1px" opacity="0.25"></line><line x1="198.91428538731168" y1="0" x2="198.91428538731168" y2="177.95999908447266" fill="rgb(0, 0, 0)" stroke="rgb(60, 60, 60)" stroke-width="1px" opacity="0.25"></line><line x1="218.8057139260428" y1="0" x2="218.8057139260428" y2="177.95999908447266" fill="rgb(0, 0, 0)" stroke="rgb(60, 60, 60)" stroke-width="1px" opacity="0.25"></line><line x1="238.69714246477398" y1="0" x2="238.69714246477398" y2="177.95999908447266" fill="rgb(0, 0, 0)" stroke="rgb(60, 60, 60)" stroke-width="1px" opacity="0.25"></line><line x1="258.5885710035052" y1="0" x2="258.5885710035052" y2="177.95999908447266" fill="rgb(0, 0, 0)" stroke="rgb(60, 60, 60)" stroke-width="1px" opacity="0.25"></line><line x1="278.4799995422363" y1="0" x2="278.4799995422363" y2="177.95999908447266" fill="rgb(0, 0, 0)" stroke="rgb(60, 60, 60)" stroke-width="1px" opacity="0.25"></line></g><g><line x1="0" y1="177.95999908447266" x2="278.4799995422363" y2="177.95999908447266" fill="rgb(0, 0, 0)" stroke="rgb(60, 60, 60)" stroke-width="1px" opacity="0.25"></line><line x1="0" y1="160.16399917602538" x2="278.4799995422363" y2="160.16399917602538" fill="rgb(0, 0, 0)" stroke="rgb(60, 60, 60)" stroke-width="1px" opacity="0.25"></line><line x1="0" y1="142.36799926757814" x2="278.4799995422363" y2="142.36799926757814" fill="rgb(0, 0, 0)" stroke="rgb(60, 60, 60)" stroke-width="1px" opacity="0.25"></line><line x1="0" y1="124.57199935913087" x2="278.4799995422363" y2="124.57199935913087" fill="rgb(0, 0, 0)" stroke="rgb(60, 60, 60)" stroke-width="1px" opacity="0.25"></line><line x1="0" y1="106.77599945068359" x2="278.4799995422363" y2="106.77599945068359" fill="rgb(0, 0, 0)" stroke="rgb(60, 60, 60)" stroke-width="1px" opacity="0.25"></line><line x1="0" y1="88.97999954223634" x2="278.4799995422363" y2="88.97999954223634" fill="rgb(0, 0, 0)" stroke="rgb(60, 60, 60)" stroke-width="1px" opacity="0.25"></line><line x1="0" y1="71.18399963378907" x2="278.4799995422363" y2="71.18399963378907" fill="rgb(0, 0, 0)" stroke="rgb(60, 60, 60)" stroke-width="1px" opacity="0.25"></line><line x1="0" y1="53.38799972534183" x2="278.4799995422363" y2="53.38799972534183" fill="rgb(0, 0, 0)" stroke="rgb(60, 60, 60)" stroke-width="1px" opacity="0.25"></line><line x1="0" y1="35.59199981689457" x2="278.4799995422363" y2="35.59199981689457" fill="rgb(0, 0, 0)" stroke="rgb(60, 60, 60)" stroke-width="1px" opacity="0.25"></line><line x1="0" y1="17.79599990844727" x2="278.4799995422363" y2="17.79599990844727" fill="rgb(0, 0, 0)" stroke="rgb(60, 60, 60)" stroke-width="1px" opacity="0.25"></line><line x1="0" y1="0" x2="278.4799995422363" y2="0" fill="rgb(0, 0, 0)" stroke="rgb(60, 60, 60)" stroke-width="1px" opacity="0.25"></line></g></g></g><g><g><line x1="0" y1="391.5119979858398" x2="278.4799995422363" y2="391.5119979858398" fill="rgb(0, 0, 0)" stroke="rgb(153, 153, 153)" stroke-width="1.5px"></line></g></g><g><g><line x1="19.891428538731166" y1="0" x2="19.891428538731166" y2="177.95999908447266" fill="rgb(0, 0, 0)" stroke="rgb(153, 153, 153)" stroke-width="1.5px"></line></g></g><g><g><g><g><g><path style="fill: none;" stroke="rgb(204, 51, 17)" stroke-width="2px" d="M19.891428538731166,152.18273652177305L21.88057139260428,106.82275682850779L23.8697142464774,81.2324067792782L25.858857100350516,68.70550878120396L27.847999954223635,62.24104567333784L29.837142808096747,58.25109467289583L31.826285661969866,55.981534943058364L33.81542851584298,54.04709067504547L35.80457136971609,52.71705973894012L37.79371422358921,51.60569403065769L39.78285707746233,50.982207150383914L41.77199993133545,50.23017338213177L43.76114278520856,49.77061447971195L45.75028563908168,49.056071379262335L47.7394284929548,48.764502603643706L49.72857134682792,48.40681883450458L51.71771420070103,48.0807859995744L53.70685705457415,47.8507950573682L55.69599990844727,47.41684074537258L57.68514276232039,47.03399417765149L59.674285616193494,47.010379464691425L61.66342847006661,46.6336453773348L63.65257132393973,46.64579697732455L65.64171417781284,46.622534004472215L67.63085703168596,46.14064765007859L69.61999988555908,45.759786323375835L71.60914273943219,46.196482952495074L73.59828559330532,45.81514727690876L75.58742844717843,45.71712627814716L77.57657130105156,45.50524146383242L79.56571415492466,45.42646947664747L81.55485700879778,45.36657383973167L83.5439998626709,45.2234333224614L85.53314271654402,45.3009851995202L87.52228557041713,45.23768929925032L89.51142842429026,45.201147664231314L91.50057127816336,44.78195483772916L93.48971413203647,44.7193546332486L95.4788569859096,44.75321831657911L97.4679998397827,44.63352780142722L99.45714269365584,44.47831462580507L101.44628554752894,44.39080883840242L103.43542840140206,44.30723556355136L105.42457125527518,43.81076075148994L107.4137141091483,44.24201325975878L109.4028569630214,44.06140719944975L111.39199981689454,44.67981790147161L113.38114267076764,43.791527521830716L115.37028552464078,44.21518579299115L117.35942837851388,43.95393727518896L119.34857123238699,44.24870217610811L121.33771408626012,43.95579491309712L123.32685694013323,43.90535993597797L125.31599979400634,43.89140260386603L127.30514264787946,43.26842493967675L129.2942855017526,43.41607558401134L131.2834283556257,43.77618869494131L133.2725712094988,43.42686803062051L135.26171406337193,43.878862963294125L137.25085691724504,43.40269509454362L139.23999977111816,43.266853999782086L141.22914262499128,44.63095457226072L143.21828547886437,43.74880175933396L145.20742833273752,44.00585616768916L147.19657118661064,43.77533699945354L149.18571404048373,43.29325826889129L151.17485689435685,43.51008704616328L153.16399974823,43.29674011335993L155.15314260210312,43.4386035179831L157.1422854559762,43.80985552798208L159.13142830984933,43.26501831478146L161.12057116372247,43.09336987379433L163.10971401759556,43.46298074847712L165.09885687146868,43.38437623033212L167.0879997253418,43.39353943257768L169.0771425792149,43.1424549580681L171.06628543308804,44.125736663072246L173.05542828696116,42.91879291148345L175.04457114083425,43.443367067612485L177.03371399470737,43.467385061368304L179.02285684858052,43.303813854767554L181.0119997024536,43.16350323544418L183.00114255632673,43.20797151303475L184.99028541019985,43.09380869820839L186.97942826407294,43.337955419745384L188.96857111794608,45.17048061755111L190.9577139718192,43.22168734889215L192.9468568256923,42.91544493427941L194.9359996795654,43.21542284197773L196.92514253343856,43.0515976292435L198.91428538731168,42.853889269449866L200.90342824118477,43.32797892370371L202.8925710950579,42.7145564694095L204.88171394893104,42.935255436185884L206.87085680280413,42.39437657162179L208.85999965667725,42.30697246568141L210.84914251055037,42.19886756446738L212.83828536442346,42.98291161623561L214.8274282182966,42.455451365192516L216.81657107216972,42.46800474474668L218.8057139260428,42.31268121370462L220.79485677991593,42.177191219096414L222.78399963378908,42.74831056926655L224.7731424876622,42.43069067977336L226.7622853415353,41.8815547482574L228.7514281954084,42.567207209647876L230.74057104928156,42.369350406024154L232.72971390315465,42.781396194543134L234.71885675702777,42.10139462980936L236.70799961090088,42.29511059759028L238.69714246477398,42.6468274968L240.68628531864712,42.11132144311358L242.67542817252024,42.34253510922932L244.66457102639333,43.27048972693626L246.65371388026645,42.63531037779336L248.6428567341396,42.43188150206802L250.6319995880127,42.42232342300136L252.6211424418858,42.145738227252025L254.61028529575893,42.67922166117492L256.59942814963205,42.123386014473596" fill="none"></path></g><g><path style="fill: none;" stroke="rgb(0, 119, 187)" stroke-width="2px" d="M19.891428538731166,70.07726964852355L21.88057139260428,56.087214287809914L23.8697142464774,49.7817457166513L25.858857100350516,46.78986515356033L27.847999954223635,45.230560396375665L29.837142808096747,44.26286355237005L31.826285661969866,43.63823784772515L33.81542851584298,43.20847061637173L35.80457136971609,42.77532530960755L37.79371422358921,42.49786731861016L39.78285707746233,42.26841667928187L41.77199993133545,42.00798525517965L43.76114278520856,41.888438908112136L45.75028563908168,41.67511584532704L47.7394284929548,41.46584001855703L49.72857134682792,41.357214892296696L51.71771420070103,41.20088114188471L53.70685705457415,41.14202665460931L55.69599990844727,41.03722968960767L57.68514276232039,40.949894674882046L59.674285616193494,40.90367618236493L61.66342847006661,40.77213812888283L63.65257132393973,40.767648791458896L65.64171417781284,40.727246123237535L67.63085703168596,40.57837038773326L69.61999988555908,40.42668271140619L71.60914273943219,40.42516252183006L73.59828559330532,40.30912782890553L75.58742844717843,40.34449918050146L77.57657130105156,40.27979067822565L79.56571415492466,40.2982608335133L81.55485700879778,40.34628812932789L83.5439998626709,40.15306166700276L85.53314271654402,40.16049374284603L87.52228557041713,40.199418060406146L89.51142842429026,40.1292413865213L91.50057127816336,39.98606083676634L93.48971413203647,39.96885681380485L95.4788569859096,39.95655268979692L97.4679998397827,39.853187315991875L99.45714269365584,39.84791299567581L101.44628554752894,39.89652417123136L103.43542840140206,39.85671146275743L105.42457125527518,39.678891591536456L107.4137141091483,39.716562135420105L109.4028569630214,39.637203196684226L111.39199981689454,39.81575836659576L113.38114267076764,39.5760792120428L115.37028552464078,39.67014062519297L117.35942837851388,39.600348128164L119.34857123238699,39.73462403754323L121.33771408626012,39.629286342012875L123.32685694013323,39.60926814219613L125.31599979400634,39.5377438665939L127.30514264787946,39.4067965050736L129.2942855017526,39.45572212549416L131.2834283556257,39.53986876439555L133.2725712094988,39.43189215423902L135.26171406337193,39.5327346231586L137.25085691724504,39.31031223953548L139.23999977111816,39.323835678530884L141.22914262499128,39.85335004776675L143.21828547886437,39.47550546536732L145.20742833273752,39.55553060775719L147.19657118661064,39.49845638857744L149.18571404048373,39.31173067911982L151.17485689435685,39.41058507156106L153.16399974823,39.29753154829936L155.15314260210312,39.30727490157298L157.1422854559762,39.544726161334296L159.13142830984933,39.269700835573076L161.12057116372247,39.217947876835154L163.10971401759556,39.366085377100916L165.09885687146868,39.27599921307399L167.0879997253418,39.28151001960137L169.0771425792149,39.217985999111846L171.06628543308804,39.60295653947122L173.05542828696116,39.17463559156846L175.04457114083425,39.45799307724221L177.03371399470737,39.37950028659216L179.02285684858052,39.267163465078454L181.0119997024536,39.241273592023106L183.00114255632673,39.22229477475267L184.99028541019985,39.17718885922832L186.97942826407294,39.1662113085722L188.96857111794608,39.971923945318395L190.9577139718192,39.34625593586151L192.9468568256923,39.18688959926965L194.9359996795654,39.2570937572286L196.92514253343856,39.17907487359517L198.91428538731168,39.113079008300105L200.90342824118477,39.40480647601365L202.8925710950579,39.09365787019598L204.88171394893104,39.12759383446107L206.87085680280413,38.94604447212001L208.85999965667725,38.91231045821766L210.84914251055037,38.892582213763575L212.83828536442346,39.21724269676119L214.8274282182966,39.01272265464178L216.81657107216972,38.98096297011219L218.8057139260428,38.91702415347319L220.79485677991593,38.89516948336404L222.78399963378908,39.012374145270314L224.7731424876622,38.98798648428067L226.7622853415353,38.76777858551654L228.7514281954084,38.96922662958832L230.74057104928156,38.938793038955225L232.72971390315465,39.01318014654683L234.71885675702777,38.84388492832002L236.70799961090088,38.944686587291926L238.69714246477398,39.040802303989665L240.68628531864712,38.880134388309614L242.67542817252024,38.92492558741455L244.66457102639333,39.24881996440115L246.65371388026645,39.01682008441972L248.6428567341396,38.88101819834918L250.6319995880127,38.938748907827886L252.6211424418858,38.880302708730625L254.61028529575893,39.03293659800775L256.59942814963205,38.862939387113045" fill="none"></path></g></g></g></g><g opacity="0.2"><g><g><g><path style="fill: none;" stroke="rgb(204, 51, 17)" stroke-width="2px" d="M19.891428538731166,152.18273652177305L21.88057139260428,93.21476292052813L23.8697142464774,71.25217026007869L25.858857100350516,63.48179231600699L27.847999954223635,59.49300240618396L29.837142808096747,56.54527092167683L31.826285661969866,55.009575562717885L33.81542851584298,53.2182244443091L35.80457136971609,52.14708387917909L37.79371422358921,51.129403816398565L39.78285707746233,50.71500006524985L41.77199993133545,49.90787376668305L43.76114278520856,49.57366076905856L45.75028563908168,48.74983867075008L47.7394284929548,48.63954456292669L49.72857134682792,48.25352579278734L51.71771420070103,47.94105764234865L53.70685705457415,47.75222751083567L55.69599990844727,47.230860326017876L57.68514276232039,46.869917077218645L59.674285616193494,47.00025887342309L61.66342847006661,46.47218791132656L63.65257132393973,46.651004805891546L65.64171417781284,46.61256415896406L67.63085703168596,45.93412492676708L69.61999988555908,45.59656004050322L71.60914273943219,46.383638650688965L73.59828559330532,45.65171770165745L75.58742844717843,45.675117278677874L77.57657130105156,45.41443368626898L79.56571415492466,45.39271005356824L81.55485700879778,45.34090428105338L83.5439998626709,45.162087386488395L85.53314271654402,45.3342217182597L87.52228557041713,45.210562484848936L89.51142842429026,45.18548696350882L91.50057127816336,44.60230076922818L93.48971413203647,44.69252597418546L95.4788569859096,44.76773132372074L97.4679998397827,44.582231866362065L99.45714269365584,44.411794693395535L101.44628554752894,44.353306358086996L103.43542840140206,44.27141844575803L105.42457125527518,43.59798583203505L107.4137141091483,44.42683576330259L109.4028569630214,43.984004602174394L111.39199981689454,44.94485105948098L113.38114267076764,43.41083164484175L115.37028552464078,44.39675362348848L117.35942837851388,43.84197362470226L119.34857123238699,44.37502999078774L121.33771408626012,43.83026322894952L123.32685694013323,43.88374494578406L125.31599979400634,43.885420890103745L127.30514264787946,43.00143451216704L129.2942855017526,43.479354431583346L131.2834283556257,43.930522885339855L133.2725712094988,43.27715917448299L135.26171406337193,44.072575077297046L137.25085691724504,43.198623150793395L139.23999977111816,43.20863638774139L141.22914262499128,45.215569103322935L143.21828547886437,43.37073626807964L145.20742833273752,44.11602234269853L147.19657118661064,43.6765430702097L149.18571404048373,43.08665309865032L151.17485689435685,43.60301366499411L153.16399974823,43.20530571358708L155.15314260210312,43.4994021199644L157.1422854559762,43.96896353226734L159.13142830984933,43.03151665198115L161.12057116372247,43.01980625622841L163.10971401759556,43.62138540905548L165.09885687146868,43.350688579698584L167.0879997253418,43.39746651925438L169.0771425792149,43.03484732613546L171.06628543308804,44.54714310807395L173.05542828696116,42.40153130365965L175.04457114083425,43.66818456309633L177.03371399470737,43.47767848726366L179.02285684858052,43.23371190908151L181.0119997024536,43.10337011287706L183.00114255632673,43.22702934628782L184.99028541019985,43.04488177756852L186.97942826407294,43.44258972897555L188.96857111794608,45.955848559467825L190.9577139718192,42.386490233752596L192.9468568256923,42.784198185159624L194.9359996795654,43.34398480241984L196.92514253343856,42.98138682378598L198.91428538731168,42.76915711525257L200.90342824118477,43.5311602040982L202.8925710950579,42.45166113185482L204.88171394893104,43.029840707661464L206.87085680280413,42.1625713439515L208.85999965667725,42.26951356313552L210.84914251055037,42.15253689251844L212.83828536442346,43.318930495564786L214.8274282182966,42.22939697188835L216.81657107216972,42.47338476455556L218.8057139260428,42.24611398611509L220.79485677991593,42.119124078550016L222.78399963378908,42.993076005053666L224.7731424876622,42.29456786999057L226.7622853415353,41.646210777607706L228.7514281954084,42.86105826452953L230.74057104928156,42.284554633042575L232.72971390315465,42.957987246765555L234.71885675702777,41.80996538778058L236.70799961090088,42.378131726639225L238.69714246477398,42.797563310746995L240.68628531864712,41.88181884867649L242.67542817252024,42.44162668042176L244.66457102639333,43.66818456309633L246.65371388026645,42.36309065673217L248.6428567341396,42.34469769818574L250.6319995880127,42.418227103401335L252.6211424418858,42.02720171478799L254.61028529575893,42.90785741857039L256.59942814963205,41.88517073731586" fill="none"></path></g><g><path style="fill: none;" stroke="rgb(0, 119, 187)" stroke-width="2px" d="M19.891428538731166,70.07726964852355L21.88057139260428,51.890197679595815L23.8697142464774,47.322612973899425L25.858857100350516,45.54225095875137L27.847999954223635,44.56769994409643L29.837142808096747,43.84914412065231L31.826285661969866,43.37073626807964L33.81542851584298,43.02432494154604L35.80457136971609,42.5897037861358L37.79371422358921,42.37895909155654L39.78285707746233,42.1700812716625L41.77199993133545,41.89637198542718L43.76114278520856,41.83720478659674L45.75028563908168,41.5836916901379L47.7394284929548,41.37615038280259L49.72857134682792,41.31066126742448L51.71771420070103,41.133880963425185L53.70685705457415,41.116803302952434L55.69599990844727,40.99231670462436L57.68514276232039,40.912465382861086L59.674285616193494,40.883868257001126L61.66342847006661,40.71576467739109L63.65257132393973,40.765724789705786L65.64171417781284,40.70993069399978L67.63085703168596,40.514566501088524L69.61999988555908,40.36167370726602L71.60914273943219,40.42451101201172L73.59828559330532,40.25939867479505L75.58742844717843,40.359658331185386L77.57657130105156,40.25205846296453L79.56571415492466,40.306176614350846L81.55485700879778,40.366871256105554L83.5439998626709,40.070250326006175L85.53314271654402,40.16367891820741L87.52228557041713,40.216099910788984L89.51142842429026,40.099165669142025L91.50057127816336,39.924697744014196L93.48971413203647,39.96148366110705L95.4788569859096,39.95127949379352L97.4679998397827,39.80888787007538L99.45714269365584,39.84565257268318L101.44628554752894,39.91735753218367L103.43542840140206,39.83964887341139L105.42457125527518,39.60268307529881L107.4137141091483,39.73270665422737L109.4028569630214,39.60319222294024L111.39199981689454,39.89228201084356L113.38114267076764,39.47335957437721L115.37028552464078,39.71045265940015L117.35942837851388,39.57043705800865L119.34857123238699,39.79217085584864L121.33771408626012,39.58414161535697L123.32685694013323,39.60068891370324L125.31599979400634,39.50709060562153L127.30514264787946,39.35067620727918L129.2942855017526,39.476690248531526L131.2834283556257,39.575931609639014L133.2725712094988,39.385616464171875L135.26171406337193,39.57595282412407L137.25085691724504,39.21498836083978L139.23999977111816,39.329631438100336L141.22914262499128,40.08028477743923L143.21828547886437,39.31357207291043L145.20742833273752,39.58982709735287L147.19657118661064,39.47399600892899L149.18571404048373,39.231705375066525L151.17485689435685,39.45295123975015L153.16399974823,39.249080038330106L155.15314260210312,39.3114506244045L157.1422854559762,39.646490986946304L159.13142830984933,39.151832838818194L161.12057116372247,39.19576803737604L163.10971401759556,39.42957287721478L165.09885687146868,39.23739085706242L167.0879997253418,39.28387179382739L169.0771425792149,39.19076141890204L171.06628543308804,39.7679439139109L173.05542828696116,38.991069471038685L175.04457114083425,39.5794319996738L177.03371399470737,39.345860519170714L179.02285684858052,39.21901911300105L181.0119997024536,39.230177932142254L183.00114255632673,39.21416099592247L184.99028541019985,39.15785775257504L186.97942826407294,39.16150664400524L188.96857111794608,40.31722936106675L190.9577139718192,39.078112503237065L192.9468568256923,39.11858974073024L194.9359996795654,39.28718125349664L196.92514253343856,39.14563820918087L198.91428538731168,39.08479506603075L200.90342824118477,39.529832533605116L202.8925710950579,38.960308467702674L204.88171394893104,39.142137819146086L206.87085680280413,38.868237602545236L208.85999965667725,38.89785302368804L210.84914251055037,38.884127251854665L212.83828536442346,39.356382903760135L214.8274282182966,38.92507120801915L216.81657107216972,38.96735167674237L218.8057139260428,38.88962180348503L220.79485677991593,38.88580319617435L222.78399963378908,39.062604714658704L224.7731424876622,38.97753462957084L226.7622853415353,38.67340377176046L228.7514281954084,39.05556150561901L230.74057104928156,38.925750071541046L232.72971390315465,39.04506033551465L234.71885675702777,38.77132983479427L236.70799961090088,38.98788729827979L238.69714246477398,39.08199475400292L240.68628531864712,38.81127671016097L242.67542817252024,38.944121815602415L244.66457102639333,39.38763184025251L246.65371388026645,38.917391564427675L248.6428567341396,38.82281739003324L250.6319995880127,38.96349064046157L252.6211424418858,38.85525433768893L254.61028529575893,39.098351121983654L256.59942814963205,38.79008343958671" fill="none"></path></g></g></g></g></g></g><g transform="translate(51, 177)" clip-path="url(#clip_1)"><clipPath id="clip_1"><rect width="278" height="22"></rect></clipPath><g><g><line x1="0" y1="0" x2="0" y2="5" style="visibility: inherit;" fill="rgb(0, 0, 0)" stroke="rgb(204, 204, 204)" stroke-width="1px"></line><line x1="19.891428538731166" y1="0" x2="19.891428538731166" y2="5" style="visibility: inherit;" fill="rgb(0, 0, 0)" stroke="rgb(204, 204, 204)" stroke-width="1px"></line><line x1="39.78285707746233" y1="0" x2="39.78285707746233" y2="5" style="visibility: inherit;" fill="rgb(0, 0, 0)" stroke="rgb(204, 204, 204)" stroke-width="1px"></line><line x1="59.674285616193494" y1="0" x2="59.674285616193494" y2="5" style="visibility: inherit;" fill="rgb(0, 0, 0)" stroke="rgb(204, 204, 204)" stroke-width="1px"></line><line x1="79.56571415492466" y1="0" x2="79.56571415492466" y2="5" style="visibility: inherit;" fill="rgb(0, 0, 0)" stroke="rgb(204, 204, 204)" stroke-width="1px"></line><line x1="99.45714269365584" y1="0" x2="99.45714269365584" y2="5" style="visibility: inherit;" fill="rgb(0, 0, 0)" stroke="rgb(204, 204, 204)" stroke-width="1px"></line><line x1="119.34857123238699" y1="0" x2="119.34857123238699" y2="5" style="visibility: inherit;" fill="rgb(0, 0, 0)" stroke="rgb(204, 204, 204)" stroke-width="1px"></line><line x1="139.23999977111816" y1="0" x2="139.23999977111816" y2="5" style="visibility: inherit;" fill="rgb(0, 0, 0)" stroke="rgb(204, 204, 204)" stroke-width="1px"></line><line x1="159.13142830984933" y1="0" x2="159.13142830984933" y2="5" style="visibility: inherit;" fill="rgb(0, 0, 0)" stroke="rgb(204, 204, 204)" stroke-width="1px"></line><line x1="179.02285684858052" y1="0" x2="179.02285684858052" y2="5" style="visibility: inherit;" fill="rgb(0, 0, 0)" stroke="rgb(204, 204, 204)" stroke-width="1px"></line><line x1="198.91428538731168" y1="0" x2="198.91428538731168" y2="5" style="visibility: inherit;" fill="rgb(0, 0, 0)" stroke="rgb(204, 204, 204)" stroke-width="1px"></line><line x1="218.8057139260428" y1="0" x2="218.8057139260428" y2="5" style="visibility: inherit;" fill="rgb(0, 0, 0)" stroke="rgb(204, 204, 204)" stroke-width="1px"></line><line x1="238.69714246477398" y1="0" x2="238.69714246477398" y2="5" style="visibility: inherit;" fill="rgb(0, 0, 0)" stroke="rgb(204, 204, 204)" stroke-width="1px"></line><line x1="258.5885710035052" y1="0" x2="258.5885710035052" y2="5" style="visibility: inherit;" fill="rgb(0, 0, 0)" stroke="rgb(204, 204, 204)" stroke-width="1px"></line><line x1="278.4799995422363" y1="0" x2="278.4799995422363" y2="5" style="visibility: inherit;" fill="rgb(0, 0, 0)" stroke="rgb(204, 204, 204)" stroke-width="1px"></line></g><g transform="translate(0, 8)"><text style="text-anchor: middle; visibility: hidden; font-family: &quot;Helvetica Neue&quot;, sans-serif; font-size: 12px; font-weight: 200;" x="0" y="0" dx="0em" dy="0.95em" fill="rgb(50, 49, 63)" stroke="none" stroke-width="1px">-10</text><text style="text-anchor: middle; visibility: inherit; font-family: &quot;Helvetica Neue&quot;, sans-serif; font-size: 12px; font-weight: 200;" x="19.891428538731166" y="0" dx="0em" dy="0.95em" fill="rgb(50, 49, 63)" stroke="none" stroke-width="1px">0</text><text style="text-anchor: middle; visibility: hidden; font-family: &quot;Helvetica Neue&quot;, sans-serif; font-size: 12px; font-weight: 200;" x="39.78285707746233" y="0" dx="0em" dy="0.95em" fill="rgb(50, 49, 63)" stroke="none" stroke-width="1px">10</text><text style="text-anchor: middle; visibility: inherit; font-family: &quot;Helvetica Neue&quot;, sans-serif; font-size: 12px; font-weight: 200;" x="59.674285616193494" y="0" dx="0em" dy="0.95em" fill="rgb(50, 49, 63)" stroke="none" stroke-width="1px">20</text><text style="text-anchor: middle; visibility: hidden; font-family: &quot;Helvetica Neue&quot;, sans-serif; font-size: 12px; font-weight: 200;" x="79.56571415492466" y="0" dx="0em" dy="0.95em" fill="rgb(50, 49, 63)" stroke="none" stroke-width="1px">30</text><text style="text-anchor: middle; visibility: inherit; font-family: &quot;Helvetica Neue&quot;, sans-serif; font-size: 12px; font-weight: 200;" x="99.45714269365584" y="0" dx="0em" dy="0.95em" fill="rgb(50, 49, 63)" stroke="none" stroke-width="1px">40</text><text style="text-anchor: middle; visibility: hidden; font-family: &quot;Helvetica Neue&quot;, sans-serif; font-size: 12px; font-weight: 200;" x="119.34857123238699" y="0" dx="0em" dy="0.95em" fill="rgb(50, 49, 63)" stroke="none" stroke-width="1px">50</text><text style="text-anchor: middle; visibility: inherit; font-family: &quot;Helvetica Neue&quot;, sans-serif; font-size: 12px; font-weight: 200;" x="139.23999977111816" y="0" dx="0em" dy="0.95em" fill="rgb(50, 49, 63)" stroke="none" stroke-width="1px">60</text><text style="text-anchor: middle; visibility: hidden; font-family: &quot;Helvetica Neue&quot;, sans-serif; font-size: 12px; font-weight: 200;" x="159.13142830984933" y="0" dx="0em" dy="0.95em" fill="rgb(50, 49, 63)" stroke="none" stroke-width="1px">70</text><text style="text-anchor: middle; visibility: inherit; font-family: &quot;Helvetica Neue&quot;, sans-serif; font-size: 12px; font-weight: 200;" x="179.02285684858052" y="0" dx="0em" dy="0.95em" fill="rgb(50, 49, 63)" stroke="none" stroke-width="1px">80</text><text style="text-anchor: middle; visibility: hidden; font-family: &quot;Helvetica Neue&quot;, sans-serif; font-size: 12px; font-weight: 200;" x="198.91428538731168" y="0" dx="0em" dy="0.95em" fill="rgb(50, 49, 63)" stroke="none" stroke-width="1px">90</text><text style="text-anchor: middle; visibility: inherit; font-family: &quot;Helvetica Neue&quot;, sans-serif; font-size: 12px; font-weight: 200;" x="218.8057139260428" y="0" dx="0em" dy="0.95em" fill="rgb(50, 49, 63)" stroke="none" stroke-width="1px">100</text><text style="text-anchor: middle; visibility: hidden; font-family: &quot;Helvetica Neue&quot;, sans-serif; font-size: 12px; font-weight: 200;" x="238.69714246477398" y="0" dx="0em" dy="0.95em" fill="rgb(50, 49, 63)" stroke="none" stroke-width="1px">110</text><text style="text-anchor: middle; visibility: inherit; font-family: &quot;Helvetica Neue&quot;, sans-serif; font-size: 12px; font-weight: 200;" x="258.5885710035052" y="0" dx="0em" dy="0.95em" fill="rgb(50, 49, 63)" stroke="none" stroke-width="1px">120</text><text style="text-anchor: middle; visibility: hidden; font-family: &quot;Helvetica Neue&quot;, sans-serif; font-size: 12px; font-weight: 200;" x="278.4799995422363" y="0" dx="0em" dy="0.95em" fill="rgb(50, 49, 63)" stroke="none" stroke-width="1px">130</text></g><line x1="0" y1="0" x2="278.4799995422363" y2="0" fill="rgb(0, 0, 0)" stroke="rgb(204, 204, 204)" stroke-width="1px"></line></g></g></g></g></svg>