<svg viewBox="0 0 330 200" xmlns="http://www.w3.org/2000/svg"><g><g><g><g><g><line x1="51.52000045776367" y1="177.95999908447266" x2="46.52000045776367" y2="177.95999908447266" style="visibility: inherit;" fill="rgb(0, 0, 0)" stroke="rgb(204, 204, 204)" stroke-width="1px"></line><line x1="51.52000045776367" y1="160.16399917602538" x2="46.52000045776367" y2="160.16399917602538" style="visibility: inherit;" fill="rgb(0, 0, 0)" stroke="rgb(204, 204, 204)" stroke-width="1px"></line><line x1="51.52000045776367" y1="142.3679992675781" x2="46.52000045776367" y2="142.3679992675781" style="visibility: inherit;" fill="rgb(0, 0, 0)" stroke="rgb(204, 204, 204)" stroke-width="1px"></line><line x1="51.52000045776367" y1="124.57199935913084" x2="46.52000045776367" y2="124.57199935913084" style="visibility: inherit;" fill="rgb(0, 0, 0)" stroke="rgb(204, 204, 204)" stroke-width="1px"></line><line x1="51.52000045776367" y1="106.77599945068359" x2="46.52000045776367" y2="106.77599945068359" style="visibility: inherit;" fill="rgb(0, 0, 0)" stroke="rgb(204, 204, 204)" stroke-width="1px"></line><line x1="51.52000045776367" y1="88.97999954223633" x2="46.52000045776367" y2="88.97999954223633" style="visibility: inherit;" fill="rgb(0, 0, 0)" stroke="rgb(204, 204, 204)" stroke-width="1px"></line><line x1="51.52000045776367" y1="71.18399963378907" x2="46.52000045776367" y2="71.18399963378907" style="visibility: inherit;" fill="rgb(0, 0, 0)" stroke="rgb(204, 204, 204)" stroke-width="1px"></line><line x1="51.52000045776367" y1="53.3879997253418" x2="46.52000045776367" y2="53.3879997253418" style="visibility: inherit;" fill="rgb(0, 0, 0)" stroke="rgb(204, 204, 204)" stroke-width="1px"></line><line x1="51.52000045776367" y1="35.59199981689454" x2="46.52000045776367" y2="35.59199981689454" style="visibility: inherit;" fill="rgb(0, 0, 0)" stroke="rgb(204, 204, 204)" stroke-width="1px"></line><line x1="51.52000045776367" y1="17.79599990844727" x2="46.52000045776367" y2="17.79599990844727" style="visibility: inherit;" fill="rgb(0, 0, 0)" stroke="rgb(204, 204, 204)" stroke-width="1px"></line><line x1="51.52000045776367" y1="0" x2="46.52000045776367" y2="0" style="visibility: inherit;" fill="rgb(0, 0, 0)" stroke="rgb(204, 204, 204)" stroke-width="1px"></line></g><g transform="translate(41.52000045776367, 0)"><text style="text-anchor: end; visibility: hidden; font-family: &quot;Helvetica Neue&quot;, sans-serif; font-size: 12px; font-weight: 200;" x="0" y="177.95999908447266" dx="0em" dy="0.3em" fill="rgb(50, 49, 63)" stroke="none" stroke-width="1px">-0.1</text><text style="text-anchor: end; visibility: inherit; font-family: &quot;Helvetica Neue&quot;, sans-serif; font-size: 12px; font-weight: 200;" x="0" y="160.16399917602538" dx="0em" dy="0.3em" fill="rgb(50, 49, 63)" stroke="none" stroke-width="1px">0</text><text style="text-anchor: end; visibility: hidden; font-family: &quot;Helvetica Neue&quot;, sans-serif; font-size: 12px; font-weight: 200;" x="0" y="142.3679992675781" dx="0em" dy="0.3em" fill="rgb(50, 49, 63)" stroke="none" stroke-width="1px">0.1</text><text style="text-anchor: end; visibility: inherit; font-family: &quot;Helvetica Neue&quot;, sans-serif; font-size: 12px; font-weight: 200;" x="0" y="124.57199935913084" dx="0em" dy="0.3em" fill="rgb(50, 49, 63)" stroke="none" stroke-width="1px">0.2</text><text style="text-anchor: end; visibility: hidden; font-family: &quot;Helvetica Neue&quot;, sans-serif; font-size: 12px; font-weight: 200;" x="0" y="106.77599945068359" dx="0em" dy="0.3em" fill="rgb(50, 49, 63)" stroke="none" stroke-width="1px">0.3</text><text style="text-anchor: end; visibility: inherit; font-family: &quot;Helvetica Neue&quot;, sans-serif; font-size: 12px; font-weight: 200;" x="0" y="88.97999954223633" dx="0em" dy="0.3em" fill="rgb(50, 49, 63)" stroke="none" stroke-width="1px">0.4</text><text style="text-anchor: end; visibility: hidden; font-family: &quot;Helvetica Neue&quot;, sans-serif; font-size: 12px; font-weight: 200;" x="0" y="71.18399963378907" dx="0em" dy="0.3em" fill="rgb(50, 49, 63)" stroke="none" stroke-width="1px">0.5</text><text style="text-anchor: end; visibility: inherit; font-family: &quot;Helvetica Neue&quot;, sans-serif; font-size: 12px; font-weight: 200;" x="0" y="53.3879997253418" dx="0em" dy="0.3em" fill="rgb(50, 49, 63)" stroke="none" stroke-width="1px">0.6</text><text style="text-anchor: end; visibility: hidden; font-family: &quot;Helvetica Neue&quot;, sans-serif; font-size: 12px; font-weight: 200;" x="0" y="35.59199981689454" dx="0em" dy="0.3em" fill="rgb(50, 49, 63)" stroke="none" stroke-width="1px">0.7</text><text style="text-anchor: end; visibility: inherit; font-family: &quot;Helvetica Neue&quot;, sans-serif; font-size: 12px; font-weight: 200;" x="0" y="17.79599990844727" dx="0em" dy="0.3em" fill="rgb(50, 49, 63)" stroke="none" stroke-width="1px">0.8</text><text style="text-anchor: end; visibility: hidden; font-family: &quot;Helvetica Neue&quot;, sans-serif; font-size: 12px; font-weight: 200;" x="0" y="0" dx="0em" dy="0.3em" fill="rgb(50, 49, 63)" stroke="none" stroke-width="1px">0.9</text></g><line x1="51.52000045776367" y1="0" x2="51.52000045776367" y2="177.95999908447266" fill="rgb(0, 0, 0)" stroke="rgb(204, 204, 204)" stroke-width="1px"></line></g></g><g transform="translate(51, 0)" clip-path="url(#clip_0)"><clipPath id="clip_0"><rect width="278" height="177"></rect></clipPath><g><g><g><line x1="0" y1="0" x2="0" y2="177.95999908447266" fill="rgb(0, 0, 0)" stroke="rgb(60, 60, 60)" stroke-width="1px" opacity="0.25"></line><line x1="19.891428538731166" y1="0" x2="19.891428538731166" y2="177.95999908447266" fill="rgb(0, 0, 0)" stroke="rgb(60, 60, 60)" stroke-width="1px" opacity="0.25"></line><line x1="39.78285707746233" y1="0" x2="39.78285707746233" y2="177.95999908447266" fill="rgb(0, 0, 0)" stroke="rgb(60, 60, 60)" stroke-width="1px" opacity="0.25"></line><line x1="59.674285616193494" y1="0" x2="59.674285616193494" y2="177.95999908447266" fill="rgb(0, 0, 0)" stroke="rgb(60, 60, 60)" stroke-width="1px" opacity="0.25"></line><line x1="79.56571415492466" y1="0" x2="79.56571415492466" y2="177.95999908447266" fill="rgb(0, 0, 0)" stroke="rgb(60, 60, 60)" stroke-width="1px" opacity="0.25"></line><line x1="99.45714269365584" y1="0" x2="99.45714269365584" y2="177.95999908447266" fill="rgb(0, 0, 0)" stroke="rgb(60, 60, 60)" stroke-width="1px" opacity="0.25"></line><line x1="119.34857123238699" y1="0" x2="119.34857123238699" y2="177.95999908447266" fill="rgb(0, 0, 0)" stroke="rgb(60, 60, 60)" stroke-width="1px" opacity="0.25"></line><line x1="139.23999977111816" y1="0" x2="139.23999977111816" y2="177.95999908447266" fill="rgb(0, 0, 0)" stroke="rgb(60, 60, 60)" stroke-width="1px" opacity="0.25"></line><line x1="159.13142830984933" y1="0" x2="159.13142830984933" y2="177.95999908447266" fill="rgb(0, 0, 0)" stroke="rgb(60, 60, 60)" stroke-width="1px" opacity="0.25"></line><line x1="179.02285684858052" y1="0" x2="179.02285684858052" y2="177.95999908447266" fill="rgb(0, 0, 0)" stroke="rgb(60, 60, 60)" stroke-width="1px" opacity="0.25"></line><line x1="198.91428538731168" y1="0" x2="198.91428538731168" y2="177.95999908447266" fill="rgb(0, 0, 0)" stroke="rgb(60, 60, 60)" stroke-width="1px" opacity="0.25"></line><line x1="218.8057139260428" y1="0" x2="218.8057139260428" y2="177.95999908447266" fill="rgb(0, 0, 0)" stroke="rgb(60, 60, 60)" stroke-width="1px" opacity="0.25"></line><line x1="238.69714246477398" y1="0" x2="238.69714246477398" y2="177.95999908447266" fill="rgb(0, 0, 0)" stroke="rgb(60, 60, 60)" stroke-width="1px" opacity="0.25"></line><line x1="258.5885710035052" y1="0" x2="258.5885710035052" y2="177.95999908447266" fill="rgb(0, 0, 0)" stroke="rgb(60, 60, 60)" stroke-width="1px" opacity="0.25"></line><line x1="278.4799995422363" y1="0" x2="278.4799995422363" y2="177.95999908447266" fill="rgb(0, 0, 0)" stroke="rgb(60, 60, 60)" stroke-width="1px" opacity="0.25"></line></g><g><line x1="0" y1="177.95999908447266" x2="278.4799995422363" y2="177.95999908447266" fill="rgb(0, 0, 0)" stroke="rgb(60, 60, 60)" stroke-width="1px" opacity="0.25"></line><line x1="0" y1="160.16399917602538" x2="278.4799995422363" y2="160.16399917602538" fill="rgb(0, 0, 0)" stroke="rgb(60, 60, 60)" stroke-width="1px" opacity="0.25"></line><line x1="0" y1="142.3679992675781" x2="278.4799995422363" y2="142.3679992675781" fill="rgb(0, 0, 0)" stroke="rgb(60, 60, 60)" stroke-width="1px" opacity="0.25"></line><line x1="0" y1="124.57199935913084" x2="278.4799995422363" y2="124.57199935913084" fill="rgb(0, 0, 0)" stroke="rgb(60, 60, 60)" stroke-width="1px" opacity="0.25"></line><line x1="0" y1="106.77599945068359" x2="278.4799995422363" y2="106.77599945068359" fill="rgb(0, 0, 0)" stroke="rgb(60, 60, 60)" stroke-width="1px" opacity="0.25"></line><line x1="0" y1="88.97999954223633" x2="278.4799995422363" y2="88.97999954223633" fill="rgb(0, 0, 0)" stroke="rgb(60, 60, 60)" stroke-width="1px" opacity="0.25"></line><line x1="0" y1="71.18399963378907" x2="278.4799995422363" y2="71.18399963378907" fill="rgb(0, 0, 0)" stroke="rgb(60, 60, 60)" stroke-width="1px" opacity="0.25"></line><line x1="0" y1="53.3879997253418" x2="278.4799995422363" y2="53.3879997253418" fill="rgb(0, 0, 0)" stroke="rgb(60, 60, 60)" stroke-width="1px" opacity="0.25"></line><line x1="0" y1="35.59199981689454" x2="278.4799995422363" y2="35.59199981689454" fill="rgb(0, 0, 0)" stroke="rgb(60, 60, 60)" stroke-width="1px" opacity="0.25"></line><line x1="0" y1="17.79599990844727" x2="278.4799995422363" y2="17.79599990844727" fill="rgb(0, 0, 0)" stroke="rgb(60, 60, 60)" stroke-width="1px" opacity="0.25"></line><line x1="0" y1="0" x2="278.4799995422363" y2="0" fill="rgb(0, 0, 0)" stroke="rgb(60, 60, 60)" stroke-width="1px" opacity="0.25"></line></g></g></g><g><g><line x1="0" y1="160.16399917602538" x2="278.4799995422363" y2="160.16399917602538" fill="rgb(0, 0, 0)" stroke="rgb(153, 153, 153)" stroke-width="1.5px"></line></g></g><g><g><line x1="19.891428538731166" y1="0" x2="19.891428538731166" y2="177.95999908447266" fill="rgb(0, 0, 0)" stroke="rgb(153, 153, 153)" stroke-width="1.5px"></line></g></g><g><g><g><g><g><path style="fill: none;" stroke="rgb(255, 112, 67)" stroke-width="2px" d="M19.891428538731166,34.82994581328475L21.88057139260428,79.2124844262767L23.8697142464774,106.17181138932304L25.858857100350516,119.50309414942198L27.847999954223635,126.47523514789312L29.837142808096747,130.84241075874726L31.826285661969866,133.5289549885669L33.81542851584298,135.621308687854L35.80457136971609,137.0217249071216L37.79371422358921,138.3473739110356L39.78285707746233,138.99315300021254L41.77199993133545,140.19453872750807L43.76114278520856,140.58213704945757L45.75028563908168,141.15273518373553L47.7394284929548,141.99091976386657L49.72857134682792,142.40171619679398L51.71771420070103,142.59473593085875L53.70685705457415,142.89209571038256L55.69599990844727,143.47396723295307L57.68514276232039,144.00445869047374L59.674285616193494,144.12968469646503L61.66342847006661,144.53587658396788L63.65257132393973,144.41312265168938L65.64171417781284,144.31019664463918L67.63085703168596,144.97649484051607L69.61999988555908,145.51260909303988L71.60914273943219,144.9593484211987L73.59828559330532,145.54326328487696L75.58742844717843,145.6044527135283L77.57657130105156,145.90305580674897L79.56571415492466,145.86139027331348L81.55485700879778,146.07442803570345L83.5439998626709,146.31346334749873L85.53314271654402,146.20403936397958L87.52228557041713,146.1482343623845L89.51142842429026,146.25312942675686L91.50057127816336,146.9028036863798L93.48971413203647,146.88478466352035L95.4788569859096,146.73541149447607L97.4679998397827,147.0484897629809L99.45714269365584,147.17848051994383L101.44628554752894,147.21807546514924L103.43542840140206,147.3085000492809L105.42457125527518,148.132970398121L107.4137141091483,147.56227764412245L109.4028569630214,147.6869876204331L111.39199981689454,146.84331120591494L113.38114267076764,147.950357621778L115.37028552464078,147.566826615624L117.35942837851388,147.71622973633788L119.34857123238699,147.24997940769566L121.33771408626012,147.88976911971315L123.32685694013323,148.0663639829046L125.31599979400634,147.89018808232933L127.30514264787946,148.69017140095661L129.2942855017526,148.50514333712806L131.2834283556257,147.86441690639228L133.2725712094988,148.40582649893557L135.26171406337193,147.86502937191324L137.25085691724504,148.50753043316632L139.23999977111816,148.73834258732086L141.22914262499128,146.58431522664893L143.21828547886437,148.12503694950638L145.20742833273752,147.70161805998515L147.19657118661064,148.00286113616906L149.18571404048373,148.6111957886279L151.17485689435685,148.08319497053628L153.16399974823,148.62781796554518L155.15314260210312,148.30516629378985L157.1422854559762,147.8478446732765L159.13142830984933,148.63120091223172L161.12057116372247,148.8289227960644L163.10971401759556,148.2287279577682L165.09885687146868,148.53210002078035L167.0879997253418,148.32883570572685L169.0771425792149,148.76510869309007L171.06628543308804,147.00487265350597L173.05542828696116,149.01258568199688L175.04457114083425,148.32505266718266L177.03371399470737,148.3611145553758L179.02285684858052,148.5591014962139L181.0119997024536,148.72310196139583L183.00114255632673,148.66130194854614L184.99028541019985,148.859402277259L186.97942826407294,148.51203879087706L188.96857111794608,145.88774435835916L190.9577139718192,148.6491971233094L192.9468568256923,148.9244814972129L194.9359996795654,148.49751211502823L196.92514253343856,148.8579203531261L198.91428538731168,149.06196126805474L200.90342824118477,148.3227412758412L202.8925710950579,149.308114813429L204.88171394893104,148.84725194918983L206.87085680280413,149.71181837248847L208.85999965667725,149.74075218727623L210.84914251055037,149.93006803689502L212.83828536442346,148.69294182544934L214.8274282182966,149.59438991849441L216.81657107216972,149.55072115582857L218.8057139260428,149.6699102107333L220.79485677991593,149.80527795071436L222.78399963378908,148.99050631311118L224.7731424876622,149.28224050217747L226.7622853415353,150.10810505623323L228.7514281954084,149.08626427215276L230.74057104928156,149.40209577118648L232.72971390315465,148.46960398858565L234.71885675702777,149.75167950626812L236.70799961090088,149.4466389419884L238.69714246477398,149.06252147944576L240.68628531864712,149.92880110894444L242.67542817252024,149.4477535277099L244.66457102639333,148.14487034792626L246.65371388026645,149.13786158978715L248.6428567341396,149.6159876808911L250.6319995880127,149.25605311258445L252.6211424418858,149.80035862451777L254.61028529575893,148.92280538983306L256.59942814963205,149.59780279220755" fill="none"></path></g><g><path style="fill: none;" stroke="rgb(187, 187, 187)" stroke-width="2px" d="M19.891428538731166,117.05670120123963L21.88057139260428,133.19666103582517L23.8697142464774,141.030131950299L25.858857100350516,144.8709648411482L27.847999954223635,146.92482203374027L29.837142808096747,148.1770916668712L31.826285661969866,149.08330069925256L33.81542851584298,149.65168184876734L35.80457136971609,150.20636706141954L37.79371422358921,150.60552004674298L39.78285707746233,150.91706807553098L41.77199993133545,151.30638450825094L43.76114278520856,151.40981505020474L45.75028563908168,151.6730159311503L47.7394284929548,151.99026059834682L49.72857134682792,152.13891166741686L51.71771420070103,152.32025356956657L53.70685705457415,152.38021937352627L55.69599990844727,152.60187088939205L57.68514276232039,152.7123357510449L59.674285616193494,152.78802317965844L61.66342847006661,152.97701106135733L63.65257132393973,152.93664644975613L65.64171417781284,152.96166473546393L67.63085703168596,153.17213032675826L69.61999988555908,153.39011797794836L71.60914273943219,153.34366395041235L73.59828559330532,153.51606033211564L75.58742844717843,153.47033355908889L77.57657130105156,153.5530430520263L79.56571415492466,153.51893472280852L81.55485700879778,153.52702404776937L83.5439998626709,153.70983502620166L85.53314271654402,153.7374621905535L87.52228557041713,153.65620028588876L89.51142842429026,153.72979086944594L91.50057127816336,153.93169534522428L93.48971413203647,154.0133074794207L95.4788569859096,153.95549211040736L97.4679998397827,154.12251847904741L99.45714269365584,154.12186582828534L101.44628554752894,154.06065498628234L103.43542840140206,154.0742005069544L105.42457125527518,154.33193888747294L107.4137141091483,154.26983383367372L109.4028569630214,154.34762195324276L111.39199981689454,154.11792500519803L113.38114267076764,154.49816094358567L115.37028552464078,154.3295943559771L117.35942837851388,154.40012587545505L119.34857123238699,154.198585213664L121.33771408626012,154.4081449586776L123.32685694013323,154.41281240091732L125.31599979400634,154.46152378596793L127.30514264787946,154.68669060107288L129.2942855017526,154.62580851767922L131.2834283556257,154.4902797657715L133.2725712094988,154.63206949053946L135.26171406337193,154.4228956146073L137.25085691724504,154.758683375673L139.23999977111816,154.78060189227577L141.22914262499128,153.97715848735672L143.21828547886437,154.57789912885613L145.20742833273752,154.43810545485476L147.19657118661064,154.54298975416765L149.18571404048373,154.77986426240074L151.17485689435685,154.60317222352882L153.16399974823,154.8004820444806L155.15314260210312,154.7339003417186L157.1422854559762,154.43189546121886L159.13142830984933,154.81636133064035L161.12057116372247,154.88370149590025L163.10971401759556,154.64009174465681L165.09885687146868,154.82962402370495L167.0879997253418,154.77523203077664L169.0771425792149,154.86590968829483L171.06628543308804,154.2484937196967L173.05542828696116,154.9138417638376L175.04457114083425,154.531894293692L177.03371399470737,154.6476758587208L179.02285684858052,154.82818857930621L181.0119997024536,154.85349228688756L183.00114255632673,154.84065215952054L184.99028541019985,154.93459293086L186.97942826407294,154.91976544561467L188.96857111794608,153.75477693860367L190.9577139718192,154.71781925121505L192.9468568256923,154.8917730702392L194.9359996795654,154.78605373763313L196.92514253343856,154.9512744555818L198.91428538731168,154.97997993744545L200.90342824118477,154.57915884877207L202.8925710950579,155.04349128165669L204.88171394893104,154.92147705057823L206.87085680280413,155.24072412272045L208.85999965667725,155.26427111020146L210.84914251055037,155.28013345005726L212.83828536442346,154.82628805439185L214.8274282182966,155.12120707070468L216.81657107216972,155.1199308525439L218.8057139260428,155.23733534937068L220.79485677991593,155.25814115749222L222.78399963378908,155.04775741750043L224.7731424876622,155.06745850729138L226.7622853415353,155.4236659914725L228.7514281954084,155.06392896319554L230.74057104928156,155.1563868204154L232.72971390315465,155.00608121394944L234.71885675702777,155.30645343289956L236.70799961090088,155.13770233879882L238.69714246477398,154.97566407069175L240.68628531864712,155.22747346555235L242.67542817252024,155.1446272480284L244.66457102639333,154.65182321060854L246.65371388026645,155.00965616664934L248.6428567341396,155.1994990426816L250.6319995880127,155.0755556267665L252.6211424418858,155.26001743158525L254.61028529575893,154.93910402033652L256.59942814963205,155.19956863426526" fill="none"></path></g></g></g></g><g opacity="0.2"><g><g><g><path style="fill: none;" stroke="rgb(255, 112, 67)" stroke-width="2px" d="M19.891428538731166,34.82994581328475L21.88057139260428,92.52724601017427L23.8697142464774,116.6859489049111L25.858857100350516,125.06223906038323L27.847999954223635,129.4390922863432L29.837142808096747,132.7095093476557L31.826285661969866,134.67949173388521L33.81542851584298,136.51783558851102L35.80457136971609,137.62186390910423L37.79371422358921,138.91549801582042L39.78285707746233,139.26991383274796L41.77199993133545,140.7094174128267L43.76114278520856,140.74825052772778L45.75028563908168,141.39727720229533L47.7394284929548,142.35014170959838L49.72857134682792,142.57777180837954L51.71771420070103,142.67745867367327L53.70685705457415,143.0195356157282L55.69599990844727,143.72334074252953L57.68514276232039,144.2318121722419L59.674285616193494,144.18335298474514L61.66342847006661,144.70995882146727L63.65257132393973,144.3605138235702L65.64171417781284,144.26608549876053L67.63085703168596,145.26205121017753L69.61999988555908,145.7423723441215L71.60914273943219,144.72223670469535L73.59828559330532,145.7935125121676L75.58742844717843,145.63067675437887L77.57657130105156,146.0310285609864L79.56571415492466,145.84353361612685L81.55485700879778,146.16572993387055L83.5439998626709,146.41590705255382L85.53314271654402,146.1571433710428L87.52228557041713,146.12431793312945L89.51142842429026,146.298084454345L91.50057127816336,147.1812355119325L93.48971413203647,146.877062225152L95.4788569859096,146.6713944220285L97.4679998397827,147.1826661637687L99.45714269365584,147.2341908443565L101.44628554752894,147.23504472738014L103.43542840140206,147.34725344248014L105.42457125527518,148.48631483333818L107.4137141091483,147.31769503526593L109.4028569630214,147.74043475313763L111.39199981689454,146.48173559969288L113.38114267076764,148.42480608571933L115.37028552464078,147.40245618441512L117.35942837851388,147.78025964521524L119.34857123238699,147.05015783827756L121.33771408626012,148.1639647105778L123.32685694013323,148.1420474957009L125.31599979400634,147.81468412493993L127.30514264787946,149.033021394654L129.2942855017526,148.42584559548723L131.2834283556257,147.58981986464838L133.2725712094988,148.6378591814541L135.26171406337193,147.63325917461796L137.25085691724504,148.78288803084618L139.23999977111816,148.83726208195853L141.22914262499128,145.6611606435038L143.21828547886437,148.78534625930243L145.20742833273752,147.5201528216189L147.19657118661064,148.13196531167645L149.18571404048373,148.87191063968166L151.17485689435685,147.85690890563987L153.16399974823,148.86122782054898L155.15314260210312,148.16688700589472L157.1422854559762,147.6518496930565L159.13142830984933,148.96692501464108L161.12057116372247,148.9136607462784L163.10971401759556,147.9715015984984L165.09885687146868,148.66211661921412L167.0879997253418,148.24172242784678L169.0771425792149,148.95208283053145L171.06628543308804,146.25048577939847L173.05542828696116,149.8730341227787L175.04457114083425,148.0303956608337L177.03371399470737,148.3765696503157L179.02285684858052,148.6439530422874L181.0119997024536,148.79338787504523L183.00114255632673,148.6348162287534L184.99028541019985,148.94430241813595L186.97942826407294,148.3631687252848L188.96857111794608,144.7630467444229L190.9577139718192,149.83267687971664L192.9468568256923,149.0424605146001L194.9359996795654,148.3145252369491L196.92514253343856,149.01238102659661L198.91428538731168,149.14940737445272L200.90342824118477,148.00593270774968L202.8925710950579,149.73041775810947L204.88171394893104,148.64973929308732L206.87085680280413,150.08234683961646L208.85999965667725,149.75315239361382L210.84914251055037,150.01120340101738L212.83828536442346,148.1627448776869L214.8274282182966,149.98072481551372L216.81657107216972,149.5320059718289L218.8057139260428,149.7209912342639L220.79485677991593,149.86329269642053L222.78399963378908,148.6413184684241L224.7731424876622,149.40726944034873L226.7622853415353,150.46204700797142L228.7514281954084,148.64833250754683L230.74057104928156,149.53745212791523L232.72971390315465,148.06996465318528L234.71885675702777,150.30114044241776L236.70799961090088,149.3159072715828L238.69714246477398,148.89789970978464L240.68628531864712,150.300063807301L242.67542817252024,149.24159027860938L244.66457102639333,147.5864918423047L246.65371388026645,149.56342926487036L248.6428567341396,149.82089886279277L250.6319995880127,149.10179544045303L252.6211424418858,150.03363241534635L254.61028529575893,148.54671114639675L256.59942814963205,149.8870873932252" fill="none"></path></g><g><path style="fill: none;" stroke="rgb(187, 187, 187)" stroke-width="2px" d="M19.891428538731166,117.05670120123963L21.88057139260428,138.03864898620085L23.8697142464774,144.08518560694378L25.858857100350516,146.47259215663232L27.847999954223635,147.79791672631117L29.837142808096747,148.71247450312367L31.826285661969866,149.47139287325115L33.81542851584298,149.8952204964348L35.80457136971609,150.44407369845757L37.79371422358921,150.77658224479808L39.78285707746233,151.05058787087157L41.77199993133545,151.47323411241848L43.76114278520856,151.4541424017704L45.75028563908168,151.78581629071437L47.7394284929548,152.12622259207086L49.72857134682792,152.20261926753275L51.71771420070103,152.39797152729616L53.70685705457415,152.4059190037615L55.69599990844727,152.69686439615487L57.68514276232039,152.75967783460487L59.674285616193494,152.8204606490631L61.66342847006661,153.05800586779887L63.65257132393973,152.9193473304985L65.64171417781284,152.9723868579101L67.63085703168596,153.2623298658844L69.61999988555908,153.4835412570298L71.60914273943219,153.32375508146833L73.59828559330532,153.58994449570278L75.58742844717843,153.45073637064885L77.57657130105156,153.5884899775709L79.56571415492466,153.50431686742945L81.55485700879778,153.53049090132404L83.5439998626709,153.78818258838692L85.53314271654402,153.7493024038471L87.52228557041713,153.62137375531816L89.51142842429026,153.76132969097043L91.50057127816336,154.01822583484358L93.48971413203647,154.048284108362L95.4788569859096,153.93071409511592L97.4679998397827,154.19410120846456L99.45714269365584,154.12158612081586L101.44628554752894,154.03442176828105L103.43542840140206,154.0800057300996L105.42457125527518,154.44239819340945L107.4137141091483,154.2432173820455L109.4028569630214,154.38095971877235L111.39199981689454,154.019483456036L113.38114267076764,154.6611192028947L115.37028552464078,154.25735153271626L117.35942837851388,154.43035366951702L119.34857123238699,154.11221064432496L121.33771408626012,154.49795627796917L123.32685694013323,154.41481273330575L125.31599979400634,154.48240009384676L127.30514264787946,154.7831906646893L129.2942855017526,154.5997161962248L131.2834283556257,154.4321960149539L133.2725712094988,154.69283651544L135.26171406337193,154.33324966777926L137.25085691724504,154.90259241612972L139.23999977111816,154.7899955422484L141.22914262499128,153.63282559953424L143.21828547886437,154.83535940378445L145.20742833273752,154.37819388028274L147.19657118661064,154.5879401681589L149.18571404048373,154.88138190878635L151.17485689435685,154.52744706401225L153.16399974823,154.88504339631706L155.15314260210312,154.7053653262492L157.1422854559762,154.30246479814755L159.13142830984933,154.98113241753526L161.12057116372247,154.91256156672594L163.10971401759556,154.53568756555248L165.09885687146868,154.91085214329703L167.0879997253418,154.75192117666452L169.0771425792149,154.9047715415169L171.06628543308804,153.98388687601178L173.05542828696116,155.1989909256123L175.04457114083425,154.36820252077246L177.03371399470737,154.6972965294474L179.02285684858052,154.90555117384284L181.0119997024536,154.86433673299385L183.00114255632673,154.83514924779183L184.99028541019985,154.97485326143402L186.97942826407294,154.91341080908097L188.96857111794608,153.25549614988466L190.9577139718192,155.13055167090562L192.9468568256923,154.96632470696386L194.9359996795654,154.74074545223053L196.92514253343856,155.02208333470264L198.91428538731168,154.99228228681557L200.90342824118477,154.40737838219778L202.8925710950579,155.2424908957501L204.88171394893104,154.86918523725888L206.87085680280413,155.3775442964957L208.85999965667725,155.27436267626476L210.84914251055037,155.28693159570975L212.83828536442346,154.63178288482095L214.8274282182966,155.24760093483877L216.81657107216972,155.11938390190355L218.8057139260428,155.28765156229645L220.79485677991593,155.26705793240146L222.78399963378908,154.95759295750398L224.7731424876622,155.0759018314875L226.7622853415353,155.5763263418358L228.7514281954084,154.90975595107685L230.74057104928156,155.19601161636677L232.72971390315465,154.94166452546403L234.71885675702777,155.43518438387818L236.70799961090088,155.06538044132708L238.69714246477398,154.90621909864586L240.68628531864712,155.3353917776355L242.67542817252024,155.10912172623242L244.66457102639333,154.44062148028573L246.65371388026645,155.16301314780966L248.6428567341396,155.28086027526683L250.6319995880127,155.02243701994576L252.6211424418858,155.33907249079328L254.61028529575893,154.8015697012299L256.59942814963205,155.311196325949" fill="none"></path></g></g></g></g></g></g><g transform="translate(51, 177)" clip-path="url(#clip_1)"><clipPath id="clip_1"><rect width="278" height="22"></rect></clipPath><g><g><line x1="0" y1="0" x2="0" y2="5" style="visibility: inherit;" fill="rgb(0, 0, 0)" stroke="rgb(204, 204, 204)" stroke-width="1px"></line><line x1="19.891428538731166" y1="0" x2="19.891428538731166" y2="5" style="visibility: inherit;" fill="rgb(0, 0, 0)" stroke="rgb(204, 204, 204)" stroke-width="1px"></line><line x1="39.78285707746233" y1="0" x2="39.78285707746233" y2="5" style="visibility: inherit;" fill="rgb(0, 0, 0)" stroke="rgb(204, 204, 204)" stroke-width="1px"></line><line x1="59.674285616193494" y1="0" x2="59.674285616193494" y2="5" style="visibility: inherit;" fill="rgb(0, 0, 0)" stroke="rgb(204, 204, 204)" stroke-width="1px"></line><line x1="79.56571415492466" y1="0" x2="79.56571415492466" y2="5" style="visibility: inherit;" fill="rgb(0, 0, 0)" stroke="rgb(204, 204, 204)" stroke-width="1px"></line><line x1="99.45714269365584" y1="0" x2="99.45714269365584" y2="5" style="visibility: inherit;" fill="rgb(0, 0, 0)" stroke="rgb(204, 204, 204)" stroke-width="1px"></line><line x1="119.34857123238699" y1="0" x2="119.34857123238699" y2="5" style="visibility: inherit;" fill="rgb(0, 0, 0)" stroke="rgb(204, 204, 204)" stroke-width="1px"></line><line x1="139.23999977111816" y1="0" x2="139.23999977111816" y2="5" style="visibility: inherit;" fill="rgb(0, 0, 0)" stroke="rgb(204, 204, 204)" stroke-width="1px"></line><line x1="159.13142830984933" y1="0" x2="159.13142830984933" y2="5" style="visibility: inherit;" fill="rgb(0, 0, 0)" stroke="rgb(204, 204, 204)" stroke-width="1px"></line><line x1="179.02285684858052" y1="0" x2="179.02285684858052" y2="5" style="visibility: inherit;" fill="rgb(0, 0, 0)" stroke="rgb(204, 204, 204)" stroke-width="1px"></line><line x1="198.91428538731168" y1="0" x2="198.91428538731168" y2="5" style="visibility: inherit;" fill="rgb(0, 0, 0)" stroke="rgb(204, 204, 204)" stroke-width="1px"></line><line x1="218.8057139260428" y1="0" x2="218.8057139260428" y2="5" style="visibility: inherit;" fill="rgb(0, 0, 0)" stroke="rgb(204, 204, 204)" stroke-width="1px"></line><line x1="238.69714246477398" y1="0" x2="238.69714246477398" y2="5" style="visibility: inherit;" fill="rgb(0, 0, 0)" stroke="rgb(204, 204, 204)" stroke-width="1px"></line><line x1="258.5885710035052" y1="0" x2="258.5885710035052" y2="5" style="visibility: inherit;" fill="rgb(0, 0, 0)" stroke="rgb(204, 204, 204)" stroke-width="1px"></line><line x1="278.4799995422363" y1="0" x2="278.4799995422363" y2="5" style="visibility: inherit;" fill="rgb(0, 0, 0)" stroke="rgb(204, 204, 204)" stroke-width="1px"></line></g><g transform="translate(0, 8)"><text style="text-anchor: middle; visibility: hidden; font-family: &quot;Helvetica Neue&quot;, sans-serif; font-size: 12px; font-weight: 200;" x="0" y="0" dx="0em" dy="0.95em" fill="rgb(50, 49, 63)" stroke="none" stroke-width="1px">-10</text><text style="text-anchor: middle; visibility: inherit; font-family: &quot;Helvetica Neue&quot;, sans-serif; font-size: 12px; font-weight: 200;" x="19.891428538731166" y="0" dx="0em" dy="0.95em" fill="rgb(50, 49, 63)" stroke="none" stroke-width="1px">0</text><text style="text-anchor: middle; visibility: hidden; font-family: &quot;Helvetica Neue&quot;, sans-serif; font-size: 12px; font-weight: 200;" x="39.78285707746233" y="0" dx="0em" dy="0.95em" fill="rgb(50, 49, 63)" stroke="none" stroke-width="1px">10</text><text style="text-anchor: middle; visibility: inherit; font-family: &quot;Helvetica Neue&quot;, sans-serif; font-size: 12px; font-weight: 200;" x="59.674285616193494" y="0" dx="0em" dy="0.95em" fill="rgb(50, 49, 63)" stroke="none" stroke-width="1px">20</text><text style="text-anchor: middle; visibility: hidden; font-family: &quot;Helvetica Neue&quot;, sans-serif; font-size: 12px; font-weight: 200;" x="79.56571415492466" y="0" dx="0em" dy="0.95em" fill="rgb(50, 49, 63)" stroke="none" stroke-width="1px">30</text><text style="text-anchor: middle; visibility: inherit; font-family: &quot;Helvetica Neue&quot;, sans-serif; font-size: 12px; font-weight: 200;" x="99.45714269365584" y="0" dx="0em" dy="0.95em" fill="rgb(50, 49, 63)" stroke="none" stroke-width="1px">40</text><text style="text-anchor: middle; visibility: hidden; font-family: &quot;Helvetica Neue&quot;, sans-serif; font-size: 12px; font-weight: 200;" x="119.34857123238699" y="0" dx="0em" dy="0.95em" fill="rgb(50, 49, 63)" stroke="none" stroke-width="1px">50</text><text style="text-anchor: middle; visibility: inherit; font-family: &quot;Helvetica Neue&quot;, sans-serif; font-size: 12px; font-weight: 200;" x="139.23999977111816" y="0" dx="0em" dy="0.95em" fill="rgb(50, 49, 63)" stroke="none" stroke-width="1px">60</text><text style="text-anchor: middle; visibility: hidden; font-family: &quot;Helvetica Neue&quot;, sans-serif; font-size: 12px; font-weight: 200;" x="159.13142830984933" y="0" dx="0em" dy="0.95em" fill="rgb(50, 49, 63)" stroke="none" stroke-width="1px">70</text><text style="text-anchor: middle; visibility: inherit; font-family: &quot;Helvetica Neue&quot;, sans-serif; font-size: 12px; font-weight: 200;" x="179.02285684858052" y="0" dx="0em" dy="0.95em" fill="rgb(50, 49, 63)" stroke="none" stroke-width="1px">80</text><text style="text-anchor: middle; visibility: hidden; font-family: &quot;Helvetica Neue&quot;, sans-serif; font-size: 12px; font-weight: 200;" x="198.91428538731168" y="0" dx="0em" dy="0.95em" fill="rgb(50, 49, 63)" stroke="none" stroke-width="1px">90</text><text style="text-anchor: middle; visibility: inherit; font-family: &quot;Helvetica Neue&quot;, sans-serif; font-size: 12px; font-weight: 200;" x="218.8057139260428" y="0" dx="0em" dy="0.95em" fill="rgb(50, 49, 63)" stroke="none" stroke-width="1px">100</text><text style="text-anchor: middle; visibility: hidden; font-family: &quot;Helvetica Neue&quot;, sans-serif; font-size: 12px; font-weight: 200;" x="238.69714246477398" y="0" dx="0em" dy="0.95em" fill="rgb(50, 49, 63)" stroke="none" stroke-width="1px">110</text><text style="text-anchor: middle; visibility: inherit; font-family: &quot;Helvetica Neue&quot;, sans-serif; font-size: 12px; font-weight: 200;" x="258.5885710035052" y="0" dx="0em" dy="0.95em" fill="rgb(50, 49, 63)" stroke="none" stroke-width="1px">120</text><text style="text-anchor: middle; visibility: hidden; font-family: &quot;Helvetica Neue&quot;, sans-serif; font-size: 12px; font-weight: 200;" x="278.4799995422363" y="0" dx="0em" dy="0.95em" fill="rgb(50, 49, 63)" stroke="none" stroke-width="1px">130</text></g><line x1="0" y1="0" x2="278.4799995422363" y2="0" fill="rgb(0, 0, 0)" stroke="rgb(204, 204, 204)" stroke-width="1px"></line></g></g></g></g></svg>